<?xml version="1.0" standalone="no"?>
 <!DOCTYPE svg PUBLIC "-//W3C//DTD SVG 1.1//EN" 
 "http://www.w3.org/Graphics/SVG/1.1/DTD/svg11.dtd"> 
<svg xmlns="http://www.w3.org/2000/svg" version="1.1" 
    width="29.7002cm" height="21.0007cm" viewBox="0 0 116930 82680">
<title>SVG Picture created as 20191024_NUCLEO_SHIELD-F_SilkS.svg date 2020/02/18 15:22:59 </title>
  <desc>Picture generated by PCBNEW </desc>
<g style="fill:#000000; fill-opacity:1;stroke:#000000; stroke-opacity:1;
stroke-linecap:round; stroke-linejoin:round;"
 transform="translate(0 0) scale(1 1)">
</g>
<g style="fill:#000000; fill-opacity:0.0; 
stroke:#000000; stroke-width:-0.000393701; stroke-opacity:1; 
stroke-linecap:round; stroke-linejoin:round;">
</g>
<g style="fill:#000000; fill-opacity:0.0; 
stroke:#000000; stroke-width:19.685; stroke-opacity:1; 
stroke-linecap:round; stroke-linejoin:round;">
<path d="M87598 59055
L87598 19685
" />
<path d="M60039 59055
L87598 59055
" />
<path d="M60039 19685
L60039 59055
" />
<path d="M87598 19685
L60039 19685
" />
</g>
<g style="fill:#000000; fill-opacity:0.0; 
stroke:#000000; stroke-width:47.2441; stroke-opacity:1; 
stroke-linecap:round; stroke-linejoin:round;">
<path d="M78216 50655
L78421 50655
" />
<path d="M78216 51214
L78421 51214
" />
<path d="M79216 42905
L79421 42905
" />
<path d="M79216 43464
L79421 43464
" />
<path d="M77421 43464
L77216 43464
" />
<path d="M77421 42905
L77216 42905
" />
<path d="M84795 58708
L86842 58708
" />
<path d="M84795 48685
L84795 58708
" />
<path d="M86842 47661
L86842 58708
" />
<path d="M84795 48685
L85818 48685
" />
<path d="M85818 48685
L85818 47661
" />
<path d="M85818 47661
L86842 47661
" />
<path d="M84795 48185
L84795 47661
" />
<path d="M84795 47661
L85318 47661
" />
<path d="M60795 58708
L62842 58708
" />
<path d="M60795 55685
L60795 58708
" />
<path d="M62842 54661
L62842 58708
" />
<path d="M60795 55685
L61818 55685
" />
<path d="M61818 55685
L61818 54661
" />
<path d="M61818 54661
L62842 54661
" />
<path d="M60795 55185
L60795 54661
" />
<path d="M60795 54661
L61318 54661
" />
</g>
<g style="fill:#000000; fill-opacity:1.0; 
stroke:#000000; stroke-width:3.93701; stroke-opacity:1; 
stroke-linecap:round; stroke-linejoin:round;">
<path style="fill:#000000; fill-opacity:1.0; 
stroke:#000000; stroke-width:3.93701; stroke-opacity:1; 
stroke-linecap:round; stroke-linejoin:round;fill-rule:evenodd;"
d="M 62158.9,20446.5
62163.2,20491.3
62175.6,20533.7
62195.7,20572.7
62222.7,20607.4
62256.2,20636.8
62294.4,20659.6
62336.2,20675.2
62378.4,20682.5
62420,20682.1
62460.2,20674.4
62498.2,20660
62533.2,20639.5
62564.4,20613.3
62590.8,20581.9
62611.7,20546.1
62626.3,20506.1
62633.7,20462.6
62634.5,20443
62634.5,20408.4
62654.9,20408.4
62669.2,20409.5
62679.8,20414.1
62690.5,20423.5
62705.6,20438.6
62705.6,21301.4
62705.6,21404.6
62705.5,21499.3
62705.5,21585.8
62705.5,21664.6
62705.4,21736
62705.3,21800.3
62705.2,21857.9
62705.1,21909.3
62704.9,21954.7
62704.7,21994.6
62704.5,22029.3
62704.2,22059.2
62703.9,22084.7
62703.5,22106
62703.1,22123.7
62702.6,22138.1
62702.1,22149.5
62701.5,22158.3
62700.8,22164.9
62700.1,22169.6
62699.3,22172.9
62698.4,22175.1
62698,22175.8
62696.3,22178.6
62695,22181.1
62693.5,22183.4
62691.5,22185.5
62688.6,22187.5
62684.6,22189.2
62679,22190.8
62671.5,22192.2
62661.6,22193.4
62649.1,22194.5
62633.6,22195.5
62614.7,22196.3
62592,22197
62565.3,22197.6
62534,22198.1
62497.9,22198.5
62456.6,22198.8
62409.8,22199
62357,22199.2
62297.9,22199.3
62232.1,22199.4
62159.4,22199.4
62079.2,22199.4
61991.3,22199.4
61895.3,22199.4
61790.8,22199.4
61775.7,22199.4
61670.6,22199.4
61574,22199.3
61485.6,22199.3
61405,22199.2
61331.8,22199.2
61265.7,22199.1
61206.3,22198.9
61153.3,22198.8
61106.3,22198.6
61064.9,22198.4
61028.8,22198.1
60997.5,22197.8
60970.8,22197.5
60948.4,22197.1
60929.7,22196.7
60914.5,22196.2
60902.3,22195.7
60893,22195.1
60885.9,22194.5
60880.9,22193.7
60877.6,22193
60875.9,22192.3
60872.5,22190.9
60869.5,22189.9
60866.7,22188.8
60864.1,22187.4
60861.8,22185.3
60859.8,22182
60857.9,22177.3
60856.2,22170.8
60854.7,22162
60853.5,22150.7
60852.3,22136.4
60851.4,22118.8
60850.5,22097.5
60849.9,22072.2
60849.3,22042.4
60848.8,22007.9
60848.5,21968.2
60848.2,21923
60848,21871.9
60847.9,21814.6
60847.8,21750.6
60847.8,21679.6
60847.8,21601.3
60847.8,21515.3
60847.8,21421.1
60847.8,21318.5
60847.8,21301.9
60847.8,21198.4
60847.8,21103.4
60847.8,21016.6
60847.8,20937.5
60847.8,20865.9
60847.9,20801.3
60848,20743.3
60848.2,20691.7
60848.4,20648.4
60967.6,20648.4
60983.3,20671.1
60987.7,20677.4
60991.7,20682.9
60995.2,20688.1
60998.4,20693.6
61001.2,20699.7
61003.6,20707.1
61005.8,20716
61007.6,20727.1
61009.2,20740.7
61010.5,20757.3
61011.6,20777.4
61012.4,20801.5
61013.1,20830
61013.6,20863.4
61014,20902.1
61014.2,20946.7
61014.4,20997.6
61014.5,21055.2
61014.5,21120.1
61014.5,21192.7
61014.5,21273.4
61014.5,21321.7
61014.5,21407.1
61014.5,21484.1
61014.5,21553.1
61014.4,21614.7
61014.3,21669.2
61014.1,21717.2
61013.8,21759.1
61013.4,21795.4
61012.8,21826.5
61012.1,21853
61011.1,21875.2
61010,21893.7
61008.6,21909
61006.9,21921.4
61004.9,21931.4
61002.7,21939.6
61000.1,21946.4
60997.2,21952.3
60993.9,21957.6
60990.2,21963
60986.1,21968.9
60983.7,21972.4
60968.4,21995
61177.7,21995
61226.2,21995
61266.5,21995
61299.4,21994.8
61325.6,21994.6
61345.8,21994.2
61360.6,21993.7
61370.9,21993
61377.3,21992.1
61380.6,21991
61381.4,21989.5
61380.6,21987.8
61380.1,21987.3
61370.2,21972.7
61360,21951.9
61350.7,21927.5
61347.5,21917.1
61345.6,21910
61344.1,21901.7
61342.8,21891.4
61341.7,21878.2
61340.9,21861.3
61340.1,21839.8
61339.5,21813.1
61339,21780.2
61338.5,21740.3
61338.1,21692.6
61337.9,21675
61337.5,21625.8
61337.2,21584.7
61337,21551.1
61337,21524.2
61337.2,21503.5
61337.5,21488
61338.1,21477.3
61338.8,21470.5
61339.9,21466.9
61341.2,21465.9
61342.9,21466.7
61344.7,21468.4
61348.7,21473.5
61357.4,21484.9
61370.1,21501.9
61386.2,21523.5
61405,21549
61425.9,21577.5
61448.4,21608.1
61471.9,21640
61495.6,21672.5
61519,21704.5
61541.5,21735.4
61562.5,21764.3
61581.3,21790.2
61597.4,21812.5
61610,21830.2
61618.7,21842.5
61620.5,21845.1
61629.5,21859.6
61640.1,21878.5
61650.1,21898
61651.4,21900.6
61659.9,21919.6
61664.8,21934.4
61667.1,21948.5
61667.5,21965
61667.3,21995
62121.8,21995
62119.8,21993
62203.3,21993
62207.6,21993.4
62219.9,21993.8
62239.3,21994.2
62264.8,21994.5
62295.7,21994.7
62330.9,21994.9
62369.5,21995
62396.7,21995
62438,21995
62476.1,21994.7
62510.2,21994.3
62539.3,21993.8
62562.6,21993.2
62579.3,21992.4
62588.5,21991.6
62590,21991.1
62587,21985.3
62583.8,21982.1
62578.6,21975.4
62571.9,21963.5
62567.2,21953.8
62556.7,21930.6
62555.5,21467.3
62554.3,21003.9
62378.8,21003.9
62340.3,21004
62304.7,21004.2
62273,21004.5
62246.1,21004.8
62224.9,21005.3
62210.5,21005.8
62203.7,21006.4
62203.3,21006.6
62205.7,21011.7
62211.3,21020.4
62211.7,21021
62219.1,21032.9
62226.9,21047.4
62228.4,21050.6
62229.8,21053.9
62231,21057.9
62232.1,21063.1
62233,21070.1
62233.9,21079.3
62234.6,21091.5
62235.2,21107
62235.7,21126.5
62236.1,21150.5
62236.5,21179.5
62236.8,21214.2
62237,21255
62237.3,21302.5
62237.5,21357.2
62237.7,21419.8
62237.9,21490.2
62238.1,21563.1
62238.3,21627.6
62238.4,21684.4
62238.4,21733.9
62238.3,21776.7
62238,21813.4
62237.6,21844.5
62237,21870.6
62236.1,21892.2
62235,21909.9
62233.6,21924.1
62231.9,21935.6
62229.9,21944.7
62227.5,21952.2
62224.7,21958.4
62221.5,21964
62217.9,21969.6
62214.6,21974.5
62207.8,21984.8
62203.8,21991.7
62203.3,21993
62119.8,21993
62085.9,21958.1
62067.5,21938.5
62047.7,21916.3
62029.5,21894.9
62021.5,21884.9
62009.5,21869.3
61993.8,21848.4
61974.7,21822.7
61952.7,21792.9
61928.3,21759.7
61902,21723.6
61874.3,21685.4
61845.5,21645.6
61816.1,21605
61786.6,21564.1
61757.5,21523.6
61729.3,21484.1
61702.3,21446.3
61677.1,21410.8
61654,21378.3
61633.7,21349.4
61616.4,21324.7
61602.8,21304.9
61593.2,21290.7
61588.1,21282.6
61587.5,21281
61590.6,21276.5
61598.8,21265.8
61611.5,21249.5
61628.2,21228.4
61648.3,21203
61671.3,21174
61696.7,21142.1
61724,21108
61752.5,21072.4
61781.8,21035.9
61805.3,21006.6
61811.3,20999.1
61840.5,20962.8
61868.9,20927.6
61895.8,20894.3
61920.9,20863.3
61943.5,20835.6
61963.1,20811.6
61979.1,20792.1
61985.9,20783.9
62019.8,20744.3
62050,20711.5
62077.1,20684.8
62101.9,20663.4
62105.6,20660.5
62121.1,20648.5
61675.5,20648.4
61677.6,20667.3
61676.3,20689.8
61667.8,20716.7
61652.1,20748.1
61634.3,20776.6
61627.9,20785.5
61616.8,20800.3
61601.8,20820.1
61583.4,20844.1
61562.3,20871.4
61539.2,20901.3
61514.8,20932.7
61489.6,20965.1
61464.4,20997.3
61439.8,21028.7
61416.4,21058.4
61395,21085.5
61376.1,21109.2
61360.5,21128.7
61348.8,21143.1
61341.7,21151.5
61340.5,21152.8
61339.3,21149.7
61338.5,21137.7
61337.9,21117.1
61337.5,21088
61337.4,21050.4
61337.6,21004.5
61337.9,20957.3
61338.4,20905.2
61339,20861.3
61339.8,20824.4
61340.9,20793.9
61342.3,20768.7
61344.2,20748.1
61346.7,20731.2
61349.8,20717.1
61353.7,20705
61358.5,20693.9
61364.2,20683.1
61370,20673.2
61384.9,20648.4
60967.6,20648.4
60848.4,20648.4
60848.4,20645.9
60848.7,20605.7
60849.1,20570.7
60849.6,20540.5
60850.3,20514.8
60851,20493.1
60851.8,20475.1
60852.8,20460.4
60853.9,20448.7
60855.2,20439.6
60856.7,20432.7
60858.3,20427.7
60860.1,20424.1
60862.2,20421.6
60864.4,20419.9
60866.8,20418.5
60869.5,20417.1
60871.8,20415.7
60873.9,20414.7
60877.1,20413.8
60881.9,20412.9
60888.8,20412.2
60898,20411.6
60910.2,20411
60925.7,20410.5
60944.9,20410
60968.3,20409.7
60996.3,20409.4
61029.3,20409.1
61067.8,20408.9
61112.2,20408.7
61163,20408.6
61220.5,20408.5
61285.2,20408.4
61357.5,20408.4
61437.8,20408.4
61521,20408.4
62158.9,20408.4
Z" /> 
<path style="fill:#000000; fill-opacity:1.0; 
stroke:#000000; stroke-width:3.93701; stroke-opacity:1; 
stroke-linecap:round; stroke-linejoin:round;fill-rule:evenodd;"
d="M 63448.2,20627.6
63511.2,20635.9
63575.8,20651.7
63642.6,20675.2
63712.6,20706.4
63717.1,20708.5
63739.8,20719.6
63760.1,20729.1
63776.5,20736.3
63787.5,20740.7
63791.2,20741.7
63798.8,20743.7
63800.6,20745.3
63798.6,20749.4
63792.3,20759.8
63782.4,20775.3
63769.7,20794.9
63754.8,20817.4
63738.5,20841.9
63721.6,20867.2
63704.7,20892.2
63688.6,20915.9
63674,20937.2
63661.7,20954.9
63652.3,20968
63646.6,20975.4
63645.8,20976.3
63641.8,20974.5
63633,20967.7
63621,20957.3
63614.8,20951.6
63576.8,20921.9
63534.8,20900.1
63489.3,20886.3
63440.9,20880.7
63413.6,20881.1
63365.9,20887.9
63322.9,20902
63284.5,20923.6
63250.5,20952.8
63220.8,20989.6
63195.3,21034.3
63180.6,21068.4
63163.3,21121.8
63150.6,21179.9
63142.3,21241.1
63138.6,21303.9
63139.3,21366.9
63144.4,21428.6
63153.9,21487.4
63167.7,21541.8
63185.9,21590.4
63192.3,21603.9
63219.1,21648.8
63250.8,21686.8
63286.8,21717.6
63326.7,21740.8
63370,21756.1
63416.3,21763.3
63432.6,21763.9
63480.5,21759.6
63527.9,21746.6
63574.3,21725.4
63619,21696
63655,21665.2
63673.3,21647.6
63744.7,21764.7
63762.4,21793.9
63778.7,21820.7
63792.8,21844.3
63804.3,21863.6
63812.5,21877.6
63816.9,21885.4
63817.5,21886.6
63814.2,21890.4
63804.2,21897.2
63788.5,21906.4
63768.6,21917.3
63745.7,21929.3
63721,21941.6
63695.9,21953.8
63671.6,21965.1
63649.4,21975
63630.5,21982.6
63621.3,21986
63568.6,22000.8
63514.3,22010.7
63456.2,22015.8
63406.2,22016.7
63379.5,22016.3
63353.7,22015.5
63331,22014.3
63313.9,22013
63308.4,22012.4
63253.7,22001
63197.9,21983.3
63143.8,21960.1
63093.9,21932.7
63063.3,21912
63013.2,21869.4
62966.6,21819.6
62924.5,21763.7
62887.7,21703.1
62857,21639
62839.7,21592.8
62820,21520.5
62806.8,21443.9
62800.2,21364.7
62800.2,21284.5
62806.7,21204.9
62819.9,21127.7
62839.6,21054.5
62841.1,21049.9
62865.9,20986.1
62896.1,20927.9
62932.8,20873.6
62977,20821.5
62994.2,20803.7
63047.8,20754.9
63102.9,20714.5
63160.4,20682.1
63221,20657.3
63285.7,20639.6
63323.3,20632.7
63385.8,20626.6
Z" /> 
<path style="fill:#000000; fill-opacity:1.0; 
stroke:#000000; stroke-width:3.93701; stroke-opacity:1; 
stroke-linecap:round; stroke-linejoin:round;fill-rule:evenodd;"
d="M 63823.8,21620.4
63830.2,21592.4
63840.3,21564.5
63849.8,21543.9
63872.8,21506.4
63903.6,21471.7
63941.1,21440.6
63984.3,21413.5
64032.5,21391.2
64084.5,21374.3
64110,21368.5
64163.6,21359.8
64222.1,21354
64281.7,21351.5
64331.5,21352.1
64395.3,21354.8
64392.3,21331.6
64384.7,21292.6
64372.5,21260.8
64355.2,21236
64332.6,21218
64304.3,21206.5
64270.1,21201.4
64229.4,21202.2
64214.5,21203.8
64158.9,21213.7
64105,21229.8
64067.8,21244.8
64050,21252.4
64034.9,21258.6
64024.5,21262.4
64021.5,21263.2
64017.6,21259.6
64011.1,21248.2
64001.7,21228.8
63989.4,21201.4
63974.2,21165.7
63971.6,21159.5
63959.8,21131
63949.2,21105.3
63940.2,21083.4
63933.4,21066.6
63929.2,21055.8
63927.9,21052.3
63931.9,21050.5
63942.2,21048.4
63953.3,21046.9
63965.2,21045.1
63984,21041.3
64008.1,21036.1
64035.8,21029.8
64065.4,21022.8
64076.7,21020
64118,21009.9
64152.6,21002
64181.9,20996.1
64207.8,20991.7
64232,20988.9
64256.1,20987.1
64281.9,20986.3
64304.8,20986.2
64371.5,20988.8
64431.3,20996.7
64484.5,21009.9
64531.6,21028.6
64572.8,21052.9
64603.3,21077.9
64630.4,21107.1
64651.6,21138.5
64668.5,21174.8
64674.6,21191.8
64679.6,21207.1
64684,21221.4
64687.8,21235.2
64691.1,21249.4
64693.9,21264.6
64696.2,21281.6
64698.1,21301
64699.6,21323.7
64700.9,21350.4
64701.9,21381.6
64702.8,21418.3
64703.5,21461
64704.1,21510.6
64704.6,21567.7
64705.1,21623.9
64705.7,21685.4
64706.1,21738.7
64706.6,21784.3
64707.1,21823.1
64707.8,21855.5
64708.5,21882.4
64709.5,21904.2
64710.7,21921.8
64712.3,21935.6
64714.1,21946.5
64716.4,21954.9
64719.1,21961.7
64722.3,21967.4
64726.1,21972.7
64730.4,21978.2
64732.1,21980.3
64738.3,21989.3
64741.1,21995.5
64741.1,21995.6
64736.8,21996.5
64724.6,21997.3
64705.5,21998
64680.4,21998.6
64650.3,21999.1
64616.1,21999.4
64578.9,21999.5
64574.6,21999.5
64408.1,21999.5
64406.8,21961.7
64405.6,21923.8
64381.1,21943.9
64342.8,21970.5
64299.5,21992
64265.5,22003.9
64238.3,22009.7
64205.5,22013.6
64170.1,22015.6
64135.4,22015.5
64104.3,22013.1
64090,22010.9
64034.9,21996
63985.1,21974.4
63941,21946.4
63903.1,21912.4
63871.5,21872.7
63846.7,21827.6
63829.3,21777.9
63824.4,21755.7
63821.4,21731.2
63820,21701.7
63819.8,21688.4
63819.8,21687.1
64119,21687.1
64122.7,21716.7
64133.8,21741.8
64152.8,21763.7
64154.8,21765.4
64173.8,21779.1
64194.2,21788
64218.1,21792.7
64247.8,21793.9
64254.9,21793.7
64276.1,21792.6
64291.9,21790.5
64305.6,21786.5
64320.9,21779.9
64325.1,21777.8
64349,21763.7
64367.4,21746.9
64372.4,21740.9
64390,21718.7
64390,21641.6
64389.8,21610.6
64389.1,21587.8
64388,21572.4
64386.2,21563.7
64384.6,21561.1
64378.4,21559.9
64365.1,21558.9
64346.6,21558.1
64324.8,21557.8
64321.3,21557.8
64273.8,21559.9
64233.3,21566.2
64199.3,21577.2
64170.7,21592.8
64149.1,21611.3
64131.6,21634.1
64121.8,21658.9
64119,21687.1
63819.8,21687.1
63820.5,21651.5
Z" /> 
<path style="fill:#000000; fill-opacity:1.0; 
stroke:#000000; stroke-width:3.93701; stroke-opacity:1; 
stroke-linecap:round; stroke-linejoin:round;fill-rule:evenodd;"
d="M 64832.2,21369.7
64846.4,21299.3
64866,21235.8
64891.2,21179
64921.8,21129.2
64957.9,21086.3
64999.4,21050.3
65017.2,21038.2
65056.9,21016.1
65097.6,21000.5
65140.9,20991
65188.7,20987.1
65225.1,20987.5
65276.2,20991.8
65320.5,21000.4
65359.4,21013.7
65394.1,21032
65413.4,21045.5
65424.9,21054.1
65433.5,21060
65436.7,21061.7
65437.3,21057.4
65437.9,21045.4
65438.2,21026.6
65438.5,21002.2
65438.7,20973.2
65438.7,20940.7
65438.7,20905.9
65438.5,20869.7
65438.3,20833.4
65437.9,20797.8
65437.5,20764.3
65437,20733.7
65436.4,20707.3
65435.8,20686.1
65435.1,20671.1
65434.9,20668.4
65431.9,20640.7
65427.4,20618.9
65420.4,20600.4
65410.1,20582.1
65407.6,20578.4
65398,20563.9
65754.5,20563.9
65754.5,21227.3
65754.5,21319.6
65754.5,21403.4
65754.6,21479.2
65754.6,21547.4
65754.7,21608.5
65754.9,21662.8
65755.2,21710.9
65755.5,21753.1
65756,21789.9
65756.6,21821.7
65757.3,21848.9
65758.2,21872.1
65759.2,21891.5
65760.5,21907.7
65761.9,21921
65763.6,21932
65765.5,21941
65767.6,21948.5
65770,21954.9
65772.7,21960.7
65775.7,21966.2
65779,21972
65781,21975.6
65794.5,21999.5
65456.7,21999.5
65456.7,21961.7
65456.4,21944.6
65455.6,21931.6
65454.5,21924.6
65454,21923.9
65449.5,21926.6
65440.6,21933.7
65431.6,21941.3
65410.2,21957.3
65382.8,21973.5
65352.5,21988.2
65322,22000.1
65309.9,22003.9
65282.9,22009.7
65250.3,22013.6
65215.1,22015.6
65180.4,22015.5
65149.3,22013.3
65134.5,22011
65080.1,21996
65030,21973.3
64984.4,21943
64943.6,21905.4
64907.8,21860.7
64881.5,21817.1
64859.9,21771.1
64843.4,21724.1
64831.6,21674.5
64824.1,21620.7
64820.8,21561.1
64820.5,21530.6
64821.3,21508.2
65147.7,21508.2
65147.8,21544.9
65149,21579.4
65151.2,21609.8
65154.5,21633.9
65155.5,21638.7
65168,21681
65184.4,21715.2
65204.9,21741.6
65229.4,21760.2
65258.3,21771
65291.6,21774.2
65329.5,21769.9
65354.5,21763.7
65373.8,21756.6
65395.1,21746.4
65411.1,21737
65438.9,21718.8
65438.9,21266
65412.4,21248.8
65381.4,21232.7
65348.3,21222.2
65314.8,21217.5
65282.8,21218.8
65254.1,21226.2
65241.5,21232.4
65218.7,21249.3
65199.4,21271.6
65183.2,21300.2
65169.6,21335.9
65158.2,21379.4
65157.7,21381.7
65153.7,21406.2
65150.7,21436.8
65148.7,21471.5
65147.7,21508.2
64821.3,21508.2
64823.6,21446.8
Z" /> 
<path style="fill:#000000; fill-opacity:1.0; 
stroke:#000000; stroke-width:3.93701; stroke-opacity:1; 
stroke-linecap:round; stroke-linejoin:round;fill-rule:evenodd;"
d="M 62424,20264.4
62461.9,20273.9
62496,20290.8
62525.4,20314.3
62549.4,20343.9
62567.2,20378.8
62577.5,20416.7
62579.8,20455
62574,20492
62560.7,20526.6
62540.7,20557.8
62514.8,20584.6
62483.7,20605.9
62448.1,20620.9
62427.9,20625.8
62410.4,20628.7
62396.9,20629.9
62383.9,20629.2
62367.9,20626.5
62354.9,20623.7
62318.1,20611.3
62285.2,20591.2
62256.8,20563.9
62233.8,20530.2
62228.3,20519.5
62221.8,20505.2
62217.8,20493.1
62215.6,20480.5
62214.7,20464.3
62214.6,20446.2
62216.2,20412.9
62221.5,20385.7
62231.4,20361.8
62246.9,20338.8
62262.1,20321.4
62290.4,20295.5
62320,20277.6
62352.5,20266.9
62383.1,20262.8
Z" /> 
<path style="fill:#000000; fill-opacity:1.0; 
stroke:#000000; stroke-width:3.93701; stroke-opacity:1; 
stroke-linecap:round; stroke-linejoin:round;fill-rule:evenodd;"
d="M 60850,22358.3
60853.2,22345.2
60858.4,22336.5
60866.2,22331.4
60876.8,22328.9
60890.9,22328.2
60908.9,22328.4
60924.5,22328.5
60970,22329.6
61008.1,22332.9
61040.2,22338.7
61067.4,22347.3
61091.2,22359.2
61112.7,22374.6
61120.4,22381.3
61133.2,22397
61144.7,22418.3
61153.5,22441.9
61158.4,22464.5
61158.9,22472.8
61155.7,22496
61147.3,22521.3
61135,22545.2
61120.5,22564.3
61118.2,22566.6
61098.2,22582.8
61076.3,22595.4
61051.3,22604.9
61021.9,22611.4
60986.7,22615.4
60944.7,22617.1
60925.4,22617.3
60900.9,22617.1
60883.7,22616.7
60872.1,22615.6
60864.5,22613.7
60859.4,22610.8
60856.7,22608.4
60854.1,22605.4
60852.1,22601.5
60850.5,22595.8
60849.4,22587.1
60848.6,22574.5
60848.2,22556.9
60847.9,22533.3
60847.8,22502.6
60847.8,22472.8
60847.7,22433.1
60847.7,22401.3
60848.1,22386.2
60905.6,22386.2
60905.6,22559.5
60942.2,22559.5
60964.3,22558.8
60987.4,22557.2
61006.7,22554.9
61007.3,22554.8
61038.4,22547.3
61062.6,22535.5
61081,22518.8
61092.7,22500.8
61099.9,22480.7
61099.3,22461.9
61090.9,22441.7
61074.6,22420.8
61052,22405.4
61022.5,22395
61002.9,22391.4
60980.5,22388.8
60956.9,22386.9
60936.8,22386.1
60935.6,22386.1
60905.6,22386.2
60848.1,22386.2
60848.3,22376.7
Z" /> 
<path style="fill:#000000; fill-opacity:1.0; 
stroke:#000000; stroke-width:3.93701; stroke-opacity:1; 
stroke-linecap:round; stroke-linejoin:round;fill-rule:evenodd;"
d="M 61463.5,22328.4
61490.8,22328.6
61511.4,22328.9
61526.4,22329.5
61536.9,22330.5
61544,22331.9
61548.8,22333.8
61552.3,22336.3
61553.6,22337.4
61561.4,22349.7
61562.8,22363.7
61557.7,22376.2
61555.3,22378.7
61551.5,22381.2
61545.3,22383
61535.7,22384.5
61521.4,22385.5
61501.4,22386.3
61474.4,22386.8
61449.8,22387.2
61352.2,22388.4
61350.9,22413.9
61349.6,22439.5
61415.8,22439.5
61444.5,22439.7
61465.5,22440.8
61480.1,22443
61489.3,22447
61494.3,22453
61496.4,22461.6
61496.7,22469.6
61495.7,22479.4
61492,22486.6
61484.5,22491.6
61472,22494.8
61453.4,22496.5
61427.6,22497.2
61413.5,22497.3
61350,22497.3
61350,22559.5
61447.8,22559.5
61479.8,22559.5
61504.2,22559.7
61522.1,22560.2
61534.6,22561
61543.1,22562.3
61548.6,22564.1
61552.5,22566.6
61554.5,22568.4
61561.2,22579
61563.3,22588.4
61560.3,22599.9
61554.5,22608.4
61551.4,22611
61547.4,22613.1
61541.4,22614.7
61532.4,22615.8
61519.2,22616.5
61500.9,22617
61476.3,22617.2
61444.4,22617.3
61427.8,22617.3
61392.3,22617.2
61364.6,22617.1
61343.7,22616.8
61328.4,22616.2
61317.7,22615.2
61310.5,22613.9
61305.8,22612
61302.4,22609.6
61301.1,22608.4
61298.5,22605.4
61296.5,22601.5
61294.9,22595.8
61293.8,22587.1
61293.1,22574.4
61292.6,22556.7
61292.3,22533
61292.2,22502.2
61292.2,22473.6
61292.2,22436.9
61292.3,22408
61292.6,22386
61293.1,22369.7
61293.9,22358.2
61295.1,22350.4
61296.7,22345.2
61299,22341.7
61301.8,22338.7
61302.5,22338
61305.9,22335.1
61309.9,22332.8
61315.5,22331.1
61323.9,22329.9
61336.1,22329.2
61353.2,22328.7
61376.4,22328.5
61406.8,22328.4
61428.3,22328.4
Z" /> 
<path style="fill:#000000; fill-opacity:1.0; 
stroke:#000000; stroke-width:3.93701; stroke-opacity:1; 
stroke-linecap:round; stroke-linejoin:round;fill-rule:evenodd;"
d="M 61865.5,22328.9
61894.9,22330.9
61922.3,22334.2
61946.1,22338.4
61964.6,22343.6
61976.2,22349.5
61978,22351.3
61984.2,22364.9
61982.3,22378.9
61972.7,22390.8
61972.2,22391.2
61966.6,22394.9
61960.6,22396.8
61952.4,22397
61939.7,22395.6
61920.4,22392.6
61918.9,22392.3
61890.3,22388.8
61859.4,22387.1
61828.4,22387.1
61799.5,22388.7
61774.8,22391.9
61756.5,22396.7
61755.3,22397.2
61742.1,22404.6
61737.5,22412.1
61741.1,22419.5
61752.7,22426.5
61772.1,22433
61798.8,22438.7
61816.7,22441.5
61853.8,22446.8
61883.3,22451.7
61906.4,22456.5
61924.5,22461.7
61938.8,22467.7
61950.5,22474.9
61960.8,22483.8
61969.2,22492.5
61979.1,22504.7
61984,22515.1
61985.5,22528
61985.6,22532.7
61984.4,22548.3
61979.8,22559.9
61971.9,22570.3
61955.8,22586.1
61937.9,22598.1
61916.7,22606.8
61891.1,22612.5
61859.5,22615.6
61820.8,22616.6
61814.5,22616.6
61788.6,22616.1
61763,22614.9
61740.5,22613.1
61723.7,22611.1
61722.3,22610.8
61705.6,22606.9
61691.4,22601.9
61683.4,22597.3
61675.9,22585.3
61675.4,22571.2
61681.9,22558.7
61683.3,22557.3
61689.2,22553.1
61696.7,22551.3
61708.2,22551.6
61722.2,22553.2
61737.8,22554.6
61759.7,22555.8
61785.3,22556.7
61811.9,22557.2
61818.9,22557.2
61845.6,22557.1
61865.2,22556.6
61879.3,22555.4
61889.7,22553.6
61898.1,22550.7
61903.1,22548.4
61914.2,22541.8
61921.2,22535.9
61922.3,22534.2
61920.1,22527.3
61909.7,22520.5
61891.9,22514.4
61867.4,22509
61860.2,22507.8
61822.4,22501.9
61792.3,22496.9
61768.6,22492.6
61750.2,22488.5
61736,22484.3
61724.7,22479.6
61715.2,22474.1
61706.4,22467.4
61697.1,22459.2
61693.9,22456.3
61682.9,22445.6
61677.1,22437
61674.8,22427.3
61674.5,22415
61678.5,22390.8
61690.6,22370.3
61710.8,22353.5
61738.9,22340.5
61758.9,22334.6
61780.7,22330.9
61806.8,22328.7
61835.5,22328.1
Z" /> 
<path style="fill:#000000; fill-opacity:1.0; 
stroke:#000000; stroke-width:3.93701; stroke-opacity:1; 
stroke-linecap:round; stroke-linejoin:round;fill-rule:evenodd;"
d="M 62167.8,22337.3
62170.4,22340.2
62172.4,22344.1
62174,22349.8
62175.1,22358.5
62175.8,22371.1
62176.3,22388.7
62176.6,22412.4
62176.7,22443
62176.7,22472.8
62176.6,22509.8
62176.5,22538.9
62176.2,22561.1
62175.7,22577.6
62174.9,22589.3
62173.7,22597.2
62172,22602.5
62169.9,22606.1
62167.8,22608.4
62154.8,22616.1
62140.9,22615.4
62128.6,22607
62125.7,22603.7
62123.5,22599.8
62121.8,22594.4
62120.6,22586.4
62119.8,22574.6
62119.3,22558.1
62119,22535.7
62118.9,22506.5
62118.9,22473.4
62118.9,22350.2
62129.8,22339.3
62143.3,22330.1
62156.3,22329.8
Z" /> 
<path style="fill:#000000; fill-opacity:1.0; 
stroke:#000000; stroke-width:3.93701; stroke-opacity:1; 
stroke-linecap:round; stroke-linejoin:round;fill-rule:evenodd;"
d="M 62551.1,22330.6
62578.1,22335.1
62598.8,22342.1
62612.3,22351.4
62616,22356.7
62619.7,22369
62617.2,22380.1
62609.3,22390.6
62597,22395.6
62579.1,22395.2
62565.2,22392.5
62534.5,22387.4
62503.1,22386.9
62467.9,22391
62458.2,22392.8
62425.5,22402
62399.9,22415.7
62381.7,22433.7
62371.2,22455.7
62369,22467.1
62370.5,22490.2
62379.6,22510.6
62395.7,22527.9
62417.9,22541.8
62445.4,22551.9
62477.2,22557.7
62512.7,22558.8
62550.8,22555
62553,22554.6
62568.2,22551.8
62576.6,22549
62580.2,22545
62581.1,22538.2
62581.1,22534.6
62581.1,22519.5
62554.2,22519.5
62530.4,22517.9
62514.1,22512.7
62504.7,22503.4
62501.2,22489.7
62501.2,22488
62503.2,22476.2
62510.1,22467.9
62522.9,22462.3
62542.6,22459.1
62561.8,22457.9
62589.6,22457.3
62609.8,22458.3
62623.5,22462.1
62632.1,22469.8
62636.7,22482.5
62638.6,22501.1
62638.9,22525.6
62638.3,22553
62636.7,22571.6
62633.9,22581.5
62633.3,22582.3
62618,22594.7
62595.6,22604.5
62567.4,22611.6
62534.9,22615.6
62499.6,22616.4
62462.8,22613.8
62441.1,22610.6
62407.2,22601
62375.6,22585.3
62349.2,22564.9
62345.2,22560.8
62332.2,22543.7
62320.4,22522.5
62311.3,22500.2
62306.2,22480
62305.6,22472.3
62308.2,22456.1
62315.1,22435.9
62325.1,22414.7
62336.7,22395.4
62347,22382.4
62371,22363.2
62402,22347.9
62438.9,22336.8
62480.6,22330.4
62518.9,22328.8
Z" /> 
<path style="fill:#000000; fill-opacity:1.0; 
stroke:#000000; stroke-width:3.93701; stroke-opacity:1; 
stroke-linecap:round; stroke-linejoin:round;fill-rule:evenodd;"
d="M 62807,22330.1
62816.3,22335.5
62828.5,22344.4
62844.1,22357.2
62863.8,22374.3
62888.3,22396.1
62918.1,22423
62952.2,22454
63023.3,22518.5
63025.6,22431.9
63026.4,22402.1
63027.1,22379.9
63028.1,22364.1
63029.3,22353.2
63031,22346.2
63033.4,22341.6
63036.6,22338.3
63038.3,22336.9
63051.9,22329.4
63064.8,22330.5
63075.1,22336.9
63085.6,22345.4
63086.9,22469.4
63087.2,22505.8
63087.4,22534.5
63087.4,22556.4
63087,22572.6
63086.3,22584.2
63085.1,22592.2
63083.4,22597.8
63081.2,22602
63078.8,22605.3
63073.4,22611.5
63068.2,22615.6
63062.2,22617.2
63054.7,22615.8
63045.1,22611
63032.6,22602.3
63016.4,22589.3
62995.8,22571.7
62970.2,22548.8
62941.1,22522.5
62836.7,22427.7
62834.5,22514
62833.6,22543.8
62832.9,22565.9
62832,22581.7
62830.7,22592.5
62829,22599.5
62826.6,22604
62823.4,22607.4
62821.7,22608.8
62807.2,22616.3
62793.4,22615.2
62781.4,22605.6
62778.7,22601.7
62776.6,22597.2
62775,22590.9
62773.8,22581.9
62773,22568.9
62772.6,22551
62772.3,22527
62772.2,22495.9
62772.2,22472.8
62772.3,22436.8
62772.4,22408.5
62772.7,22387
62773.3,22371.2
62774.2,22359.8
62775.5,22352
62777.3,22346.6
62779.7,22342.4
62781.4,22340.1
62785.9,22334.5
62790,22330.3
62794.5,22327.9
62800,22327.7
Z" /> 
<path style="fill:#000000; fill-opacity:1.0; 
stroke:#000000; stroke-width:3.93701; stroke-opacity:1; 
stroke-linecap:round; stroke-linejoin:round;fill-rule:evenodd;"
d="M 63409.6,22328.4
63439.6,22328.8
63462.7,22329.7
63479.6,22331.2
63491.4,22333.6
63499,22337
63503.2,22341.8
63505.1,22348
63505.6,22355.9
63505.6,22356.8
63505.2,22365.7
63503.3,22372.6
63498.9,22377.8
63491.1,22381.5
63478.7,22383.9
63460.7,22385.5
63436.2,22386.5
63404.1,22387
63394.2,22387.2
63298.9,22388.4
63297.6,22413.9
63296.2,22439.5
63362.4,22439.5
63388.3,22439.6
63406.8,22440
63419.3,22440.9
63427.5,22442.4
63432.7,22444.8
63436.5,22448.2
63436.5,22448.2
63443.4,22461.5
63443.2,22475.8
63436,22488
63434.5,22489.2
63429.4,22492.4
63422.5,22494.7
63412,22496.1
63396.6,22496.9
63374.7,22497.2
63360.6,22497.3
63296.7,22497.3
63296.7,22559.5
63393.8,22559.5
63425.8,22559.5
63450.2,22559.8
63468,22560.3
63480.4,22561.1
63488.7,22562.4
63493.9,22564.2
63497.3,22566.7
63498.2,22567.6
63504.6,22580
63505,22594.2
63499.8,22606.4
63495.7,22610.3
63491.4,22612.5
63484.7,22614.2
63474.7,22615.4
63460.1,22616.3
63440.1,22616.9
63413.4,22617.2
63379.2,22617.3
63371.4,22617.3
63336.6,22617.2
63309.5,22617.1
63289.2,22616.8
63274.5,22616.2
63264.2,22615.3
63257.4,22613.9
63253,22611.9
63249.7,22609.4
63248,22607.5
63245.3,22604.3
63243.2,22600.3
63241.6,22594.4
63240.5,22585.7
63239.7,22573
63239.2,22555.3
63239,22531.6
63238.9,22500.8
63238.9,22474.8
63238.9,22438.4
63239.1,22409.9
63239.4,22388.1
63239.9,22372
63240.8,22360.4
63242.1,22352.4
63243.9,22346.9
63246.2,22342.7
63248.1,22340.1
63257.3,22328.4
63371.6,22328.4
Z" /> 
<path style="fill:#000000; fill-opacity:1.0; 
stroke:#000000; stroke-width:3.93701; stroke-opacity:1; 
stroke-linecap:round; stroke-linejoin:round;fill-rule:evenodd;"
d="M 63639,22527.3
63638.9,22496.3
63638.9,22472
63638.9,22386.2
63701.1,22386.2
63701.1,22559.5
63738.1,22559.5
63759.7,22558.9
63781.9,22557.2
63800.1,22554.8
63801.2,22554.6
63833.6,22546
63858.7,22532.9
63877.3,22514.9
63890.3,22491.3
63892.6,22485.1
63894.8,22475.3
63893.8,22465.7
63889.2,22452.9
63886.4,22446.6
63877.2,22429.9
63866.1,22418.2
63853.9,22410
63829.5,22399.4
63798.3,22391.7
63761.9,22387.3
63735.6,22386.3
63701.1,22386.2
63638.9,22386.2
63638.9,22350.2
63649.8,22339.3
63654.6,22334.9
63659.9,22331.8
63667.2,22329.9
63678.3,22328.9
63694.8,22328.5
63718.4,22328.5
63719.8,22328.5
63770.6,22330.2
63813.8,22335.4
63850.1,22344.4
63880.2,22357.5
63904.9,22375.1
63924.9,22397.3
63940.8,22424.7
63941.1,22425.3
63950.6,22449.8
63954,22471.5
63951.3,22493.3
63942.4,22518.1
63940.7,22521.9
63929.2,22544.1
63916.3,22561.2
63899.6,22575.8
63876.8,22590.2
63875.5,22591
63855.7,22600.5
63833.3,22607.6
63806.9,22612.5
63775,22615.6
63736.3,22616.9
63722.6,22617
63657.3,22617.3
63648.1,22605.6
63645.4,22601.7
63643.2,22597.2
63641.6,22591
63640.5,22582
63639.7,22569.1
63639.5,22559.5
63639.2,22551.2
Z" /> 
<path style="fill:#000000; fill-opacity:1.0; 
stroke:#000000; stroke-width:3.93701; stroke-opacity:1; 
stroke-linecap:round; stroke-linejoin:round;fill-rule:evenodd;"
d="M 64793.2,22329.1
64800.9,22331.9
64801.2,22332
64811.7,22340
64817.4,22348.3
64818.6,22352.1
64818.5,22357.2
64816.9,22364.5
64813.4,22374.9
64807.7,22389.3
64799.5,22408.5
64788.3,22433.6
64773.8,22465.4
64765.8,22482.8
64751.4,22513.8
64737.9,22542.3
64725.8,22567.3
64715.6,22587.7
64707.8,22602.5
64703,22610.6
64702.1,22611.7
64689.8,22616.7
64676,22616
64665,22610
64664.5,22609.5
64660.1,22602.8
64652.7,22589.8
64643.3,22572.2
64632.6,22551.6
64628.8,22544
64600,22486.3
64568.6,22549
64557.4,22570.6
64547,22589.4
64538.2,22603.9
64532,22612.6
64529.9,22614.5
64513.5,22617
64499.9,22611.7
64496,22606.1
64489.1,22593.6
64479.8,22575.4
64468.8,22552.9
64456.5,22527.1
64443.6,22499.4
64430.6,22471
64418.1,22443.1
64406.5,22416.9
64396.6,22393.6
64388.8,22374.6
64383.8,22361
64382,22354
64382,22353.8
64386.3,22345
64395,22336.1
64395.6,22335.7
64406.2,22329.7
64416.1,22329.8
64419.8,22330.9
64424.3,22333.4
64429.1,22338.2
64434.8,22346.4
64441.9,22359
64450.9,22377
64462.6,22401.4
64473.1,22424
64485.2,22450.1
64496.1,22473.6
64505.1,22493.2
64511.7,22507.7
64515.4,22516
64516,22517.3
64518.4,22515.2
64523.9,22506.3
64531.9,22492.1
64541.5,22473.7
64545.4,22466.2
64558.4,22440.6
64568.4,22421.9
64576.2,22409.1
64582.8,22401.2
64588.8,22396.9
64595.1,22395.2
64599.3,22395
64606.6,22395.7
64613,22398.4
64619.3,22404.2
64626.5,22414.2
64635.3,22429.6
64646.7,22451.3
64653,22463.7
64663.2,22483.5
64672.1,22499.9
64678.9,22511.5
64682.9,22517
64683.4,22517.2
64685.9,22512.9
64691.6,22501.7
64699.9,22484.7
64710.2,22463.2
64721.9,22438.4
64727.6,22426
64742.6,22394.1
64754.7,22369.6
64764.5,22351.6
64772.6,22339.4
64779.6,22332.1
64786.3,22328.9
Z" /> 
<path style="fill:#000000; fill-opacity:1.0; 
stroke:#000000; stroke-width:3.93701; stroke-opacity:1; 
stroke-linecap:round; stroke-linejoin:round;fill-rule:evenodd;"
d="M 64968,22331.1
64977.3,22336.9
64987.8,22345.4
64987.8,22472
64987.8,22509
64987.6,22538.2
64987.3,22560.5
64986.7,22577.1
64985.9,22588.9
64984.7,22597
64983,22602.3
64980.8,22606.1
64979.3,22607.9
64966.9,22616
64952.8,22615.6
64940.5,22608.8
64930,22600.3
64930,22345.4
64940.5,22336.9
64950.6,22330.7
64958.9,22328.4
Z" /> 
<path style="fill:#000000; fill-opacity:1.0; 
stroke:#000000; stroke-width:3.93701; stroke-opacity:1; 
stroke-linecap:round; stroke-linejoin:round;fill-rule:evenodd;"
d="M 65272.9,22328.4
65303.8,22328.6
65327.9,22328.9
65346,22329.4
65359.1,22330.2
65368.2,22331.3
65374.3,22332.8
65378.3,22334.7
65380.2,22336.2
65390.3,22349
65391.6,22362.3
65385.3,22374.3
65381.2,22379.2
65376.8,22382.5
65370.5,22384.5
65360.5,22385.6
65345.2,22386.1
65322.9,22386.2
65318.6,22386.2
65261.1,22386.2
65261.1,22492.8
65261.1,22526.4
65260.9,22552.3
65260.5,22571.6
65259.8,22585.3
65258.7,22594.8
65257.1,22601
65255,22605.2
65252.2,22608.4
65239.3,22616.2
65225.7,22615.6
65213.5,22606.7
65212.6,22605.6
65209.6,22601.4
65207.4,22596.5
65205.7,22589.7
65204.6,22579.8
65203.9,22565.7
65203.5,22546.1
65203.4,22519.8
65203.3,22490
65203.3,22386.2
65148.5,22386.2
65124.9,22386
65108.6,22385.4
65097.9,22384.1
65091.2,22381.9
65086.8,22378.6
65086.3,22378
65079.8,22364.9
65080.4,22350.1
65087.8,22337.3
65090.6,22334.8
65094.3,22332.8
65099.8,22331.3
65108.1,22330.1
65120.2,22329.3
65137.1,22328.8
65159.7,22328.5
65189,22328.4
65226.1,22328.4
65234,22328.4
Z" /> 
<path style="fill:#000000; fill-opacity:1.0; 
stroke:#000000; stroke-width:3.93701; stroke-opacity:1; 
stroke-linecap:round; stroke-linejoin:round;fill-rule:evenodd;"
d="M 65771.2,22330.5
65783.5,22339.3
65794.5,22350.2
65794.5,22472
65794.4,22508.2
65794.3,22536.6
65794,22558.2
65793.4,22574.2
65792.5,22585.6
65791.2,22593.5
65789.4,22598.9
65787.1,22603.1
65785.2,22605.6
65773.1,22615.2
65759.3,22616.3
65746.6,22610.3
65742.4,22606.8
65739.6,22602.2
65737.9,22594.7
65737,22582.7
65736.7,22564.4
65736.7,22550.3
65736.7,22497.3
65541.1,22497.3
65541.1,22545.6
65540.9,22567.6
65540.1,22582.8
65538.4,22593.1
65535.5,22600.4
65531.9,22605.6
65519.7,22615.2
65506,22616.3
65492.8,22609.5
65489.2,22605.9
65486.7,22601.1
65485,22593.7
65484,22582.1
65483.5,22564.9
65483.2,22540.6
65483.2,22535
65483,22489.2
65482.9,22451.5
65483,22420.9
65483.2,22396.8
65483.6,22378.2
65484.2,22364.4
65485.1,22354.4
65486.4,22347.6
65488,22342.9
65490,22339.7
65492.2,22337.3
65504.8,22329.5
65517.9,22330.5
65530.2,22339.3
65535.2,22344.9
65538.4,22351.2
65540.2,22360.1
65540.9,22373.7
65541.1,22394
65541.1,22439.5
65736.7,22439.5
65736.7,22392.8
65736.9,22371.3
65737.7,22356.8
65739.4,22347.4
65742.3,22341.1
65745.6,22337.3
65758.1,22329.5
Z" /> 
</g>
<g style="fill:#000000; fill-opacity:1.0; 
stroke:#000000; stroke-width:47.2441; stroke-opacity:1; 
stroke-linecap:round; stroke-linejoin:round;">
</g>
<g style="fill:#000000; fill-opacity:0.0; 
stroke:#000000; stroke-width:47.2441; stroke-opacity:1; 
stroke-linecap:round; stroke-linejoin:round;">
<path d="M78334 46940
L78334 47334
" />
<path d="M78531 47137
L78137 47137
" />
<path d="M76956 49539
L76011 49539
" />
<path d="M78846 49539
L77822 49539
" />
<path d="M80657 49539
L79712 49539
" />
<path d="M79948 44303
L79830 44185
" />
<path d="M79948 44066
L79948 44303
" />
<path d="M79830 44185
L79948 44066
" />
<path d="M80657 44736
L76011 44736
" />
<path d="M80657 46350
L80657 44736
" />
<path d="M76011 46350
L76011 44736
" />
<path d="M76011 49539
L76011 47925
" />
<path d="M80657 47925
L80657 49539
" />
<circle cx="78334.6" cy="47137.8" r="1181.1" /> 
<path d="M73375 56488
L73159 56685
" />
<path d="M73375 56881
L73375 56488
" />
<path d="M73159 56685
L73375 56881
" />
</g>
<g style="fill:#000000; fill-opacity:0.0; 
stroke:#000000; stroke-width:59.0551; stroke-opacity:1; 
stroke-linecap:round; stroke-linejoin:round;">
<path d="M68316 58968
L68316 55917
" />
<path d="M68316 54204
L68316 53259
" />
<path d="M68316 53259
L72962 53259
" />
<path d="M72962 53259
L72962 53299
" />
<path d="M72962 54322
L72962 55799
" />
<path d="M72962 57570
L72962 58968
" />
<path d="M72962 58968
L68316 58968
" />
<path d="M69537 58968
L69537 60385
" />
<path d="M69537 60385
L71978 60385
" />
<path d="M71978 60385
L71978 58968
" />
</g>
<g style="fill:#000000; fill-opacity:0.0; 
stroke:#000000; stroke-width:47.2441; stroke-opacity:1; 
stroke-linecap:round; stroke-linejoin:round;">
<path d="M79625 56488
L79409 56685
" />
<path d="M79625 56881
L79625 56488
" />
<path d="M79409 56685
L79625 56881
" />
</g>
<g style="fill:#000000; fill-opacity:0.0; 
stroke:#000000; stroke-width:59.0551; stroke-opacity:1; 
stroke-linecap:round; stroke-linejoin:round;">
<path d="M74566 58968
L74566 55917
" />
<path d="M74566 54204
L74566 53259
" />
<path d="M74566 53259
L79212 53259
" />
<path d="M79212 53259
L79212 53299
" />
<path d="M79212 54322
L79212 55799
" />
<path d="M79212 57570
L79212 58968
" />
<path d="M79212 58968
L74566 58968
" />
<path d="M75787 58968
L75787 60385
" />
<path d="M75787 60385
L78228 60385
" />
<path d="M78228 60385
L78228 58968
" />
</g>
<g style="fill:#000000; fill-opacity:0.0; 
stroke:#000000; stroke-width:47.2441; stroke-opacity:1; 
stroke-linecap:round; stroke-linejoin:round;">
<path d="M81795 51708
L83842 51708
" />
<path d="M81795 35685
L81795 51708
" />
<path d="M83842 34661
L83842 51708
" />
<path d="M81795 35685
L82818 35685
" />
<path d="M82818 35685
L82818 34661
" />
<path d="M82818 34661
L83842 34661
" />
<path d="M81795 35185
L81795 34661
" />
<path d="M81795 34661
L82318 34661
" />
<path d="M81795 34208
L83842 34208
" />
<path d="M81795 25185
L81795 34208
" />
<path d="M83842 24161
L83842 34208
" />
<path d="M81795 25185
L82818 25185
" />
<path d="M82818 25185
L82818 24161
" />
<path d="M82818 24161
L83842 24161
" />
<path d="M81795 24685
L81795 24161
" />
<path d="M81795 24161
L82318 24161
" />
<path d="M63795 51708
L65842 51708
" />
<path d="M63795 37685
L63795 51708
" />
<path d="M65842 36661
L65842 51708
" />
<path d="M63795 37685
L64818 37685
" />
<path d="M64818 37685
L64818 36661
" />
<path d="M64818 36661
L65842 36661
" />
<path d="M63795 37185
L63795 36661
" />
<path d="M63795 36661
L64318 36661
" />
<path d="M63795 35708
L65842 35708
" />
<path d="M63795 28685
L63795 35708
" />
<path d="M65842 27661
L65842 35708
" />
<path d="M63795 28685
L64818 28685
" />
<path d="M64818 28685
L64818 27661
" />
<path d="M64818 27661
L65842 27661
" />
<path d="M63795 28185
L63795 27661
" />
<path d="M63795 27661
L64318 27661
" />
<path d="M71259 27393
L71732 27393
" />
<path d="M71732 27393
L71732 27236
" />
<path d="M71732 27236
L75905 27236
" />
<path d="M71732 36133
L75905 36133
" />
<path d="M75905 27236
L75905 27393
" />
<path d="M75905 35976
L75905 36133
" />
<path d="M71732 35976
L71732 36133
" />
<path d="M82098 55547
L80740 55547
" />
<path d="M82098 55547
L82866 55547
" />
<path d="M82098 57562
L81330 57562
" />
<path d="M82098 57562
L82866 57562
" />
<path d="M71068 49677
L69710 49677
" />
<path d="M71068 49677
L71836 49677
" />
<path d="M71068 51692
L70301 51692
" />
<path d="M71068 51692
L71836 51692
" />
<path d="M65568 54927
L64210 54927
" />
<path d="M65568 54927
L66336 54927
" />
<path d="M65568 56942
L64801 56942
" />
<path d="M65568 56942
L66336 56942
" />
<path d="M77711 31405
L77505 31405
" />
<path d="M77711 31964
L77505 31964
" />
<path d="M79818 56105
L79818 56311
" />
<path d="M80377 56105
L80377 56311
" />
<path d="M83818 56605
L83818 56811
" />
<path d="M84377 56605
L84377 56811
" />
<path d="M67289 55832
L67289 56037
" />
<path d="M67848 55832
L67848 56037
" />
<path d="M63289 55332
L63289 55537
" />
<path d="M63848 55332
L63848 55537
" />
<path d="M77711 27625
L77505 27625
" />
<path d="M77711 28185
L77505 28185
" />
<path d="M79522 28098
L79316 28098
" />
<path d="M79522 28657
L79316 28657
" />
<path d="M77711 28570
L77505 28570
" />
<path d="M77711 29129
L77505 29129
" />
<path d="M79522 29043
L79316 29043
" />
<path d="M79522 29602
L79316 29602
" />
<path d="M77711 29515
L77505 29515
" />
<path d="M77711 30074
L77505 30074
" />
<path d="M79522 29988
L79316 29988
" />
<path d="M79522 30547
L79316 30547
" />
<path d="M77711 30460
L77505 30460
" />
<path d="M77711 31019
L77505 31019
" />
<path d="M79522 30933
L79316 30933
" />
<path d="M79522 31492
L79316 31492
" />
<path d="M83068 52855
L83068 53061
" />
<path d="M83627 52855
L83627 53061
" />
<path d="M84377 54787
L84377 54582
" />
<path d="M83818 54787
L83818 54582
" />
<path d="M79842 52334
L80047 52334
" />
<path d="M79842 51775
L80047 51775
" />
<path d="M80466 58714
L80671 58714
" />
<path d="M80466 58155
L80671 58155
" />
<path d="M73098 46037
L73098 45832
" />
<path d="M72539 46037
L72539 45832
" />
<path d="M73539 45832
L73539 46037
" />
<path d="M74098 45832
L74098 46037
" />
<path d="M65848 54037
L65848 53832
" />
<path d="M65289 54037
L65289 53832
" />
<path d="M64848 54037
L64848 53832
" />
<path d="M64289 54037
L64289 53832
" />
<path d="M69966 48714
L70171 48714
" />
<path d="M69966 48155
L70171 48155
" />
<path d="M67289 53832
L67289 54037
" />
<path d="M67848 53832
L67848 54037
" />
<path d="M68039 45332
L68039 45537
" />
<path d="M68598 45332
L68598 45537
" />
<path d="M67289 45332
L67289 45537
" />
<path d="M67848 45332
L67848 45537
" />
<path d="M72789 50582
L72789 50787
" />
<path d="M73348 50582
L73348 50787
" />
<path d="M68789 50082
L68789 50287
" />
<path d="M69348 50082
L69348 50287
" />
<path d="M65671 57405
L65466 57405
" />
<path d="M65671 57964
L65466 57964
" />
<path d="M63289 57082
L63289 57287
" />
<path d="M63848 57082
L63848 57287
" />
<path d="M72789 52082
L72789 52287
" />
<path d="M73348 52082
L73348 52287
" />
<path d="M68789 51582
L68789 51787
" />
<path d="M69348 51582
L69348 51787
" />
<path d="M69926 30389
L70132 30389
" />
<path d="M69926 29830
L70132 29830
" />
<path d="M77180 22437
L77386 22437
" />
<path d="M77180 21877
L77386 21877
" />
<path d="M69926 36059
L70132 36059
" />
<path d="M69926 35500
L70132 35500
" />
<path d="M69926 31964
L70132 31964
" />
<path d="M69926 31405
L70132 31405
" />
<path d="M69926 27870
L70132 27870
" />
<path d="M69926 27311
L70132 27311
" />
<path d="M80068 53202
L80068 53407
" />
<path d="M80627 53202
L80627 53407
" />
<path d="M81966 58714
L82171 58714
" />
<path d="M81966 58155
L82171 58155
" />
<path d="M70539 45832
L70539 46037
" />
<path d="M71098 45832
L71098 46037
" />
<path d="M72039 48582
L72039 48787
" />
<path d="M72598 48582
L72598 48787
" />
<path d="M66289 53832
L66289 54037
" />
<path d="M66848 53832
L66848 54037
" />
<path d="M82318 54548
L82318 54754
" />
<path d="M82877 54548
L82877 54754
" />
<path d="M71539 45832
L71539 46037
" />
<path d="M72098 45832
L72098 46037
" />
<path d="M73421 44155
L73216 44155
" />
<path d="M73421 44714
L73216 44714
" />
<path d="M81092 55084
L81297 55084
" />
<path d="M81092 54525
L81297 54525
" />
<path d="M83797 57775
L83592 57775
" />
<path d="M83797 58334
L83592 58334
" />
<path d="M67075 49655
L66869 49655
" />
<path d="M67075 50214
L66869 50214
" />
<path d="M66848 48787
L66848 48582
" />
<path d="M66289 48787
L66289 48582
" />
<path d="M66869 47714
L67075 47714
" />
<path d="M66869 47155
L67075 47155
" />
<path d="M68825 43905
L68619 43905
" />
<path d="M68825 44464
L68619 44464
" />
<path d="M66289 40082
L66289 40287
" />
<path d="M66848 40082
L66848 40287
" />
<path d="M67268 43905
L67062 43905
" />
<path d="M67268 44464
L67062 44464
" />
<path d="M66966 57964
L67171 57964
" />
<path d="M66966 57405
L67171 57405
" />
<path d="M63869 58714
L64075 58714
" />
<path d="M63869 58155
L64075 58155
" />
<g >
</g>
<g >
</g>
<g >
</g>
<g >
</g>
<g >
</g>
<g >
</g>
<g >
</g>
<g >
</g>
<g >
</g>
<g >
</g>
<g >
</g>
<g >
</g>
<g >
</g>
<g >
</g>
<g >
</g>
<g >
</g>
<g >
</g>
<g >
</g>
<g >
</g>
<g >
</g>
<g >
</g>
<g >
</g>
<g >
</g>
<g >
</g>
<g >
</g>
<g >
</g>
<g >
</g>
<g >
</g>
<g >
</g>
<g >
</g>
<g >
</g>
<g >
</g>
<g >
</g>
<g >
</g>
<g >
</g>
<g >
</g>
<g >
</g>
<g >
</g>
<g >
</g>
<g >
</g>
<g >
</g>
<g >
</g>
<g >
</g>
<g >
</g>
<g >
</g>
<g >
</g>
<g >
</g>
<g >
</g>
<g >
</g>
<g >
</g>
<g >
</g>
<g >
</g>
<g >
</g>
<g >
</g>
<g >
</g>
<g >
</g>
<g >
</g>
<g >
</g>
<g >
</g>
<g >
</g>
<g >
</g>
<g >
</g>
<g >
</g>
<g >
</g>
<g >
</g>
<g >
</g>
<g >
</g>
<g >
</g>
<g >
</g>
<g >
</g>
<g >
</g>
<g >
</g>
</g>
<g style="fill:#000000; fill-opacity:0.0; 
stroke:#000000; stroke-width:47.2441; stroke-opacity:1; 
stroke-linecap:round; stroke-linejoin:round;">
</g>
<g style="fill:#000000; fill-opacity:0.0; 
stroke:#000000; stroke-width:59.0551; stroke-opacity:1; 
stroke-linecap:round; stroke-linejoin:round;">
<text x="81118.1" y="21220.5"
textLength="864.173" font-size="524.934" lengthAdjust="spacingAndGlyphs"
text-anchor="middle" opacity="0">U4</text>
<g class="stroked-text"><desc>U4</desc>
<path d="M80818 20808
L80818 21126
L80836 21164
L80855 21182
L80893 21201
L80968 21201
L81005 21182
L81024 21164
L81043 21126
L81043 20808
" />
<path d="M81399 20939
L81399 21201
" />
<path d="M81305 20789
L81211 21070
L81455 21070
" />
</g><text x="78318.9" y="51803.1"
textLength="1220.38" font-size="524.934" lengthAdjust="spacingAndGlyphs"
text-anchor="middle" opacity="0">R34</text>
<g class="stroked-text"><desc>R34</desc>
<path d="M78065 51784
L77934 51596
" />
<path d="M77840 51784
L77840 51390
L77990 51390
L78028 51409
L78047 51428
L78065 51465
L78065 51521
L78047 51559
L78028 51578
L77990 51596
L77840 51596
" />
<path d="M78197 51390
L78440 51390
L78309 51540
L78365 51540
L78403 51559
L78422 51578
L78440 51615
L78440 51709
L78422 51746
L78403 51765
L78365 51784
L78253 51784
L78215 51765
L78197 51746
" />
<path d="M78778 51521
L78778 51784
" />
<path d="M78684 51371
L78590 51653
L78834 51653
" />
</g><text x="80590.6" y="43378"
textLength="1220.38" font-size="524.934" lengthAdjust="spacingAndGlyphs"
text-anchor="middle" opacity="0">R32</text>
<g class="stroked-text"><desc>R32</desc>
<path d="M80337 43359
L80206 43171
" />
<path d="M80112 43359
L80112 42965
L80262 42965
L80299 42984
L80318 43002
L80337 43040
L80337 43096
L80318 43134
L80299 43152
L80262 43171
L80112 43171
" />
<path d="M80468 42965
L80712 42965
L80581 43115
L80637 43115
L80674 43134
L80693 43152
L80712 43190
L80712 43284
L80693 43321
L80674 43340
L80637 43359
L80524 43359
L80487 43340
L80468 43321
" />
<path d="M80862 43002
L80881 42984
L80918 42965
L81012 42965
L81049 42984
L81068 43002
L81087 43040
L81087 43077
L81068 43134
L80843 43359
L81087 43359
" />
</g><text x="76023.6" y="43378"
textLength="1220.38" font-size="524.934" lengthAdjust="spacingAndGlyphs"
text-anchor="middle" opacity="0">R33</text>
<g class="stroked-text"><desc>R33</desc>
<path d="M75770 43359
L75639 43171
" />
<path d="M75545 43359
L75545 42965
L75695 42965
L75733 42984
L75751 43002
L75770 43040
L75770 43096
L75751 43134
L75733 43152
L75695 43171
L75545 43171
" />
<path d="M75901 42965
L76145 42965
L76014 43115
L76070 43115
L76107 43134
L76126 43152
L76145 43190
L76145 43284
L76126 43321
L76107 43340
L76070 43359
L75958 43359
L75920 43340
L75901 43321
" />
<path d="M76276 42965
L76520 42965
L76389 43115
L76445 43115
L76482 43134
L76501 43152
L76520 43190
L76520 43284
L76501 43321
L76482 43340
L76445 43359
L76332 43359
L76295 43340
L76276 43321
" />
</g><text x="85818.9" y="47464.6"
textLength="1632.83" font-size="524.934" lengthAdjust="spacingAndGlyphs"
text-anchor="middle" opacity="0">CN12</text>
<g class="stroked-text"><desc>CN12</desc>
<path d="M85359 47408
L85340 47427
L85284 47445
L85247 47445
L85190 47427
L85153 47389
L85134 47352
L85115 47277
L85115 47220
L85134 47145
L85153 47108
L85190 47070
L85247 47052
L85284 47052
L85340 47070
L85359 47089
" />
<path d="M85528 47445
L85528 47052
L85753 47445
L85753 47052
" />
<path d="M86146 47445
L85922 47445
" />
<path d="M86034 47445
L86034 47052
L85997 47108
L85959 47145
L85922 47164
" />
<path d="M86296 47089
L86315 47070
L86353 47052
L86446 47052
L86484 47070
L86503 47089
L86521 47127
L86521 47164
L86503 47220
L86278 47445
L86521 47445
" />
</g><text x="61818.9" y="54464.6"
textLength="1632.83" font-size="524.934" lengthAdjust="spacingAndGlyphs"
text-anchor="middle" opacity="0">CN11</text>
<g class="stroked-text"><desc>CN11</desc>
<path d="M61359 54408
L61340 54427
L61284 54445
L61247 54445
L61190 54427
L61153 54389
L61134 54352
L61115 54277
L61115 54220
L61134 54145
L61153 54108
L61190 54070
L61247 54052
L61284 54052
L61340 54070
L61359 54089
" />
<path d="M61528 54445
L61528 54052
L61753 54445
L61753 54052
" />
<path d="M62146 54445
L61922 54445
" />
<path d="M62034 54445
L62034 54052
L61997 54108
L61959 54145
L61922 54164
" />
<path d="M62521 54445
L62296 54445
" />
<path d="M62409 54445
L62409 54052
L62371 54108
L62334 54145
L62296 54164
" />
</g><text x="80039.4" y="45346.5"
textLength="1276.62" font-size="524.934" lengthAdjust="spacingAndGlyphs"
text-anchor="middle" opacity="0">SW1</text>
<g class="stroked-text"><desc>SW1</desc>
<path d="M79514 45308
L79570 45327
L79664 45327
L79701 45308
L79720 45290
L79739 45252
L79739 45215
L79720 45177
L79701 45158
L79664 45140
L79589 45121
L79551 45102
L79533 45083
L79514 45046
L79514 45008
L79533 44971
L79551 44952
L79589 44934
L79683 44934
L79739 44952
" />
<path d="M79870 44934
L79964 45327
L80039 45046
L80114 45327
L80208 44934
" />
<path d="M80564 45327
L80339 45327
" />
<path d="M80451 45327
L80451 44934
L80414 44990
L80376 45027
L80339 45046
" />
</g><text x="72348.4" y="58752"
textLength="751.687" font-size="524.934" lengthAdjust="spacingAndGlyphs"
text-anchor="middle" opacity="0">J2</text>
<g class="stroked-text"><desc>J2</desc>
<path d="M72217 58339
L72217 58620
L72198 58676
L72160 58714
L72104 58733
L72067 58733
" />
<path d="M72385 58377
L72404 58358
L72442 58339
L72535 58339
L72573 58358
L72592 58377
L72610 58414
L72610 58452
L72592 58508
L72367 58733
L72610 58733
" />
</g><text x="78598.4" y="58752"
textLength="751.687" font-size="524.934" lengthAdjust="spacingAndGlyphs"
text-anchor="middle" opacity="0">J3</text>
<g class="stroked-text"><desc>J3</desc>
<path d="M78467 58339
L78467 58620
L78448 58676
L78410 58714
L78354 58733
L78317 58733
" />
<path d="M78617 58339
L78860 58339
L78729 58489
L78785 58489
L78823 58508
L78842 58526
L78860 58564
L78860 58658
L78842 58695
L78823 58714
L78785 58733
L78673 58733
L78635 58714
L78617 58695
" />
</g><text x="84685" y="35189"
textLength="1632.83" font-size="524.934" lengthAdjust="spacingAndGlyphs"
text-anchor="middle" opacity="0">CN10</text>
<g class="stroked-text"><desc>CN10</desc>
<path d="M84225 35132
L84206 35151
L84150 35170
L84113 35170
L84056 35151
L84019 35113
L84000 35076
L83982 35001
L83982 34945
L84000 34870
L84019 34832
L84056 34795
L84113 34776
L84150 34776
L84206 34795
L84225 34814
" />
<path d="M84394 35170
L84394 34776
L84619 35170
L84619 34776
" />
<path d="M85013 35170
L84788 35170
" />
<path d="M84900 35170
L84900 34776
L84863 34832
L84825 34870
L84788 34889
" />
<path d="M85256 34776
L85294 34776
L85331 34795
L85350 34814
L85369 34851
L85388 34926
L85388 35020
L85369 35095
L85350 35132
L85331 35151
L85294 35170
L85256 35170
L85219 35151
L85200 35132
L85181 35095
L85163 35020
L85163 34926
L85181 34851
L85200 34814
L85219 34795
L85256 34776
" />
</g><text x="82818.9" y="23964.6"
textLength="1257.87" font-size="524.934" lengthAdjust="spacingAndGlyphs"
text-anchor="middle" opacity="0">CN7</text>
<g class="stroked-text"><desc>CN7</desc>
<path d="M82547 23908
L82528 23927
L82472 23945
L82434 23945
L82378 23927
L82340 23889
L82322 23852
L82303 23777
L82303 23720
L82322 23645
L82340 23608
L82378 23570
L82434 23552
L82472 23552
L82528 23570
L82547 23589
" />
<path d="M82715 23945
L82715 23552
L82940 23945
L82940 23552
" />
<path d="M83090 23552
L83353 23552
L83184 23945
" />
</g><text x="64818.9" y="36527.6"
textLength="1257.87" font-size="524.934" lengthAdjust="spacingAndGlyphs"
text-anchor="middle" opacity="0">CN9</text>
<g class="stroked-text"><desc>CN9</desc>
<path d="M64547 36471
L64528 36490
L64472 36508
L64434 36508
L64378 36490
L64340 36452
L64322 36415
L64303 36340
L64303 36283
L64322 36208
L64340 36171
L64378 36133
L64434 36115
L64472 36115
L64528 36133
L64547 36152
" />
<path d="M64715 36508
L64715 36115
L64940 36508
L64940 36115
" />
<path d="M65146 36508
L65221 36508
L65259 36490
L65278 36471
L65315 36415
L65334 36340
L65334 36190
L65315 36152
L65296 36133
L65259 36115
L65184 36115
L65146 36133
L65128 36152
L65109 36190
L65109 36283
L65128 36321
L65146 36340
L65184 36358
L65259 36358
L65296 36340
L65315 36321
L65334 36283
" />
</g><text x="64818.9" y="27464.6"
textLength="1257.87" font-size="524.934" lengthAdjust="spacingAndGlyphs"
text-anchor="middle" opacity="0">CN8</text>
<g class="stroked-text"><desc>CN8</desc>
<path d="M64547 27408
L64528 27427
L64472 27445
L64434 27445
L64378 27427
L64340 27389
L64322 27352
L64303 27277
L64303 27220
L64322 27145
L64340 27108
L64378 27070
L64434 27052
L64472 27052
L64528 27070
L64547 27089
" />
<path d="M64715 27445
L64715 27052
L64940 27445
L64940 27052
" />
<path d="M65184 27220
L65146 27202
L65128 27183
L65109 27145
L65109 27127
L65128 27089
L65146 27070
L65184 27052
L65259 27052
L65296 27070
L65315 27089
L65334 27127
L65334 27145
L65315 27183
L65296 27202
L65259 27220
L65184 27220
L65146 27239
L65128 27258
L65109 27295
L65109 27370
L65128 27408
L65146 27427
L65184 27445
L65259 27445
L65296 27427
L65315 27408
L65334 27370
L65334 27295
L65315 27258
L65296 27239
L65259 27220
" />
</g><text x="73818.9" y="26960.6"
textLength="864.173" font-size="524.934" lengthAdjust="spacingAndGlyphs"
text-anchor="middle" opacity="0">U5</text>
<g class="stroked-text"><desc>U5</desc>
<path d="M73518 26548
L73518 26866
L73537 26904
L73556 26923
L73593 26941
L73668 26941
L73706 26923
L73725 26904
L73743 26866
L73743 26548
" />
<path d="M74118 26548
L73931 26548
L73912 26735
L73931 26716
L73968 26698
L74062 26698
L74100 26716
L74118 26735
L74137 26773
L74137 26866
L74118 26904
L74100 26923
L74062 26941
L73968 26941
L73931 26923
L73912 26904
" />
</g><text x="82098.4" y="56752"
textLength="864.173" font-size="524.934" lengthAdjust="spacingAndGlyphs"
text-anchor="middle" opacity="0">U3</text>
<g class="stroked-text"><desc>U3</desc>
<path d="M81798 56339
L81798 56658
L81817 56695
L81835 56714
L81873 56733
L81948 56733
L81985 56714
L82004 56695
L82023 56658
L82023 56339
" />
<path d="M82173 56339
L82417 56339
L82285 56489
L82342 56489
L82379 56508
L82398 56526
L82417 56564
L82417 56658
L82398 56695
L82379 56714
L82342 56733
L82229 56733
L82192 56714
L82173 56695
" />
</g><text x="71068.9" y="49543.3"
textLength="864.173" font-size="524.934" lengthAdjust="spacingAndGlyphs"
text-anchor="middle" opacity="0">U2</text>
<g class="stroked-text"><desc>U2</desc>
<path d="M70768 49130
L70768 49449
L70787 49487
L70806 49505
L70843 49524
L70918 49524
L70956 49505
L70975 49487
L70993 49449
L70993 49130
" />
<path d="M71162 49168
L71181 49149
L71218 49130
L71312 49130
L71350 49149
L71368 49168
L71387 49205
L71387 49243
L71368 49299
L71143 49524
L71387 49524
" />
</g><text x="65568.9" y="56131.9"
textLength="864.173" font-size="524.934" lengthAdjust="spacingAndGlyphs"
text-anchor="middle" opacity="0">U1</text>
<g class="stroked-text"><desc>U1</desc>
<path d="M65268 55719
L65268 56038
L65287 56075
L65306 56094
L65343 56113
L65418 56113
L65456 56094
L65475 56075
L65493 56038
L65493 55719
" />
<path d="M65887 56113
L65662 56113
" />
<path d="M65775 56113
L65775 55719
L65737 55775
L65700 55813
L65662 55831
" />
</g><text x="80905.5" y="31881.9"
textLength="1220.38" font-size="524.934" lengthAdjust="spacingAndGlyphs"
text-anchor="middle" opacity="0">R31</text>
<g class="stroked-text"><desc>R31</desc>
<path d="M80652 31863
L80521 31675
" />
<path d="M80427 31863
L80427 31469
L80577 31469
L80614 31488
L80633 31506
L80652 31544
L80652 31600
L80633 31638
L80614 31656
L80577 31675
L80427 31675
" />
<path d="M80783 31469
L81027 31469
L80896 31619
L80952 31619
L80989 31638
L81008 31656
L81027 31694
L81027 31788
L81008 31825
L80989 31844
L80952 31863
L80839 31863
L80802 31844
L80783 31825
" />
<path d="M81402 31863
L81177 31863
" />
<path d="M81289 31863
L81289 31469
L81252 31525
L81214 31563
L81177 31581
" />
</g><g transform="rotate(-90 80108.3 54633.9)">
<text x="80108.3" y="54830.7"
textLength="1220.38" font-size="524.934" lengthAdjust="spacingAndGlyphs"
text-anchor="middle" opacity="0">R30</text>
</g>
<g class="stroked-text"><desc>R30</desc>
<path d="M80286 54886
L80098 55018
" />
<path d="M80286 55111
L79892 55111
L79892 54961
L79911 54924
L79930 54905
L79967 54886
L80023 54886
L80061 54905
L80080 54924
L80098 54961
L80098 55111
" />
<path d="M79892 54755
L79892 54511
L80042 54643
L80042 54586
L80061 54549
L80080 54530
L80117 54511
L80211 54511
L80248 54530
L80267 54549
L80286 54586
L80286 54699
L80267 54736
L80248 54755
" />
<path d="M79892 54268
L79892 54230
L79911 54193
L79930 54174
L79967 54155
L80042 54137
L80136 54137
L80211 54155
L80248 54174
L80267 54193
L80286 54230
L80286 54268
L80267 54305
L80248 54324
L80211 54343
L80136 54362
L80042 54362
L79967 54343
L79930 54324
L79911 54305
L79892 54268
" />
</g><text x="84448.8" y="56102.4"
textLength="1220.38" font-size="524.934" lengthAdjust="spacingAndGlyphs"
text-anchor="middle" opacity="0">R29</text>
<g class="stroked-text"><desc>R29</desc>
<path d="M84195 56083
L84064 55896
" />
<path d="M83970 56083
L83970 55689
L84120 55689
L84158 55708
L84176 55727
L84195 55764
L84195 55821
L84176 55858
L84158 55877
L84120 55896
L83970 55896
" />
<path d="M84345 55727
L84364 55708
L84401 55689
L84495 55689
L84533 55708
L84551 55727
L84570 55764
L84570 55802
L84551 55858
L84326 56083
L84570 56083
" />
<path d="M84758 56083
L84833 56083
L84870 56064
L84889 56046
L84926 55989
L84945 55914
L84945 55764
L84926 55727
L84908 55708
L84870 55689
L84795 55689
L84758 55708
L84739 55727
L84720 55764
L84720 55858
L84739 55896
L84758 55914
L84795 55933
L84870 55933
L84908 55914
L84926 55896
L84945 55858
" />
</g><text x="67598.4" y="57157.5"
textLength="1220.38" font-size="524.934" lengthAdjust="spacingAndGlyphs"
text-anchor="middle" opacity="0">R28</text>
<g class="stroked-text"><desc>R28</desc>
<path d="M67345 57138
L67214 56951
" />
<path d="M67120 57138
L67120 56745
L67270 56745
L67307 56763
L67326 56782
L67345 56820
L67345 56876
L67326 56913
L67307 56932
L67270 56951
L67120 56951
" />
<path d="M67495 56782
L67514 56763
L67551 56745
L67645 56745
L67682 56763
L67701 56782
L67720 56820
L67720 56857
L67701 56913
L67476 57138
L67720 57138
" />
<path d="M67945 56913
L67907 56895
L67889 56876
L67870 56838
L67870 56820
L67889 56782
L67907 56763
L67945 56745
L68020 56745
L68057 56763
L68076 56782
L68095 56820
L68095 56838
L68076 56876
L68057 56895
L68020 56913
L67945 56913
L67907 56932
L67889 56951
L67870 56988
L67870 57063
L67889 57101
L67907 57119
L67945 57138
L68020 57138
L68057 57119
L68076 57101
L68095 57063
L68095 56988
L68076 56951
L68057 56932
L68020 56913
" />
</g><text x="63568.9" y="54631.9"
textLength="1220.38" font-size="524.934" lengthAdjust="spacingAndGlyphs"
text-anchor="middle" opacity="0">R27</text>
<g class="stroked-text"><desc>R27</desc>
<path d="M63315 54613
L63184 54425
" />
<path d="M63090 54613
L63090 54219
L63240 54219
L63278 54238
L63297 54256
L63315 54294
L63315 54350
L63297 54388
L63278 54406
L63240 54425
L63090 54425
" />
<path d="M63465 54256
L63484 54238
L63522 54219
L63615 54219
L63653 54238
L63672 54256
L63690 54294
L63690 54331
L63672 54388
L63447 54613
L63690 54613
" />
<path d="M63821 54219
L64084 54219
L63915 54613
" />
</g><text x="80905.5" y="28102.4"
textLength="1220.38" font-size="524.934" lengthAdjust="spacingAndGlyphs"
text-anchor="middle" opacity="0">R26</text>
<g class="stroked-text"><desc>R26</desc>
<path d="M80652 28083
L80521 27896
" />
<path d="M80427 28083
L80427 27689
L80577 27689
L80614 27708
L80633 27727
L80652 27764
L80652 27821
L80633 27858
L80614 27877
L80577 27896
L80427 27896
" />
<path d="M80802 27727
L80821 27708
L80858 27689
L80952 27689
L80989 27708
L81008 27727
L81027 27764
L81027 27802
L81008 27858
L80783 28083
L81027 28083
" />
<path d="M81364 27689
L81289 27689
L81252 27708
L81233 27727
L81196 27783
L81177 27858
L81177 28008
L81196 28046
L81214 28064
L81252 28083
L81327 28083
L81364 28064
L81383 28046
L81402 28008
L81402 27914
L81383 27877
L81364 27858
L81327 27839
L81252 27839
L81214 27858
L81196 27877
L81177 27914
" />
</g><text x="80905.5" y="28574.8"
textLength="1220.38" font-size="524.934" lengthAdjust="spacingAndGlyphs"
text-anchor="middle" opacity="0">R25</text>
<g class="stroked-text"><desc>R25</desc>
<path d="M80652 28556
L80521 28368
" />
<path d="M80427 28556
L80427 28162
L80577 28162
L80614 28181
L80633 28199
L80652 28237
L80652 28293
L80633 28331
L80614 28349
L80577 28368
L80427 28368
" />
<path d="M80802 28199
L80821 28181
L80858 28162
L80952 28162
L80989 28181
L81008 28199
L81027 28237
L81027 28274
L81008 28331
L80783 28556
L81027 28556
" />
<path d="M81383 28162
L81196 28162
L81177 28349
L81196 28331
L81233 28312
L81327 28312
L81364 28331
L81383 28349
L81402 28387
L81402 28481
L81383 28518
L81364 28537
L81327 28556
L81233 28556
L81196 28537
L81177 28518
" />
</g><text x="80905.5" y="29047.2"
textLength="1220.38" font-size="524.934" lengthAdjust="spacingAndGlyphs"
text-anchor="middle" opacity="0">R24</text>
<g class="stroked-text"><desc>R24</desc>
<path d="M80652 29028
L80521 28841
" />
<path d="M80427 29028
L80427 28634
L80577 28634
L80614 28653
L80633 28672
L80652 28709
L80652 28766
L80633 28803
L80614 28822
L80577 28841
L80427 28841
" />
<path d="M80802 28672
L80821 28653
L80858 28634
L80952 28634
L80989 28653
L81008 28672
L81027 28709
L81027 28747
L81008 28803
L80783 29028
L81027 29028
" />
<path d="M81364 28766
L81364 29028
" />
<path d="M81271 28616
L81177 28897
L81421 28897
" />
</g><text x="80905.5" y="29519.7"
textLength="1220.38" font-size="524.934" lengthAdjust="spacingAndGlyphs"
text-anchor="middle" opacity="0">R23</text>
<g class="stroked-text"><desc>R23</desc>
<path d="M80652 29500
L80521 29313
" />
<path d="M80427 29500
L80427 29107
L80577 29107
L80614 29125
L80633 29144
L80652 29182
L80652 29238
L80633 29275
L80614 29294
L80577 29313
L80427 29313
" />
<path d="M80802 29144
L80821 29125
L80858 29107
L80952 29107
L80989 29125
L81008 29144
L81027 29182
L81027 29219
L81008 29275
L80783 29500
L81027 29500
" />
<path d="M81158 29107
L81402 29107
L81271 29257
L81327 29257
L81364 29275
L81383 29294
L81402 29332
L81402 29425
L81383 29463
L81364 29482
L81327 29500
L81214 29500
L81177 29482
L81158 29463
" />
</g><text x="80905.5" y="29992.1"
textLength="1220.38" font-size="524.934" lengthAdjust="spacingAndGlyphs"
text-anchor="middle" opacity="0">R22</text>
<g class="stroked-text"><desc>R22</desc>
<path d="M80652 29973
L80521 29785
" />
<path d="M80427 29973
L80427 29579
L80577 29579
L80614 29598
L80633 29617
L80652 29654
L80652 29710
L80633 29748
L80614 29767
L80577 29785
L80427 29785
" />
<path d="M80802 29617
L80821 29598
L80858 29579
L80952 29579
L80989 29598
L81008 29617
L81027 29654
L81027 29692
L81008 29748
L80783 29973
L81027 29973
" />
<path d="M81177 29617
L81196 29598
L81233 29579
L81327 29579
L81364 29598
L81383 29617
L81402 29654
L81402 29692
L81383 29748
L81158 29973
L81402 29973
" />
</g><text x="80905.5" y="30464.6"
textLength="1220.38" font-size="524.934" lengthAdjust="spacingAndGlyphs"
text-anchor="middle" opacity="0">R21</text>
<g class="stroked-text"><desc>R21</desc>
<path d="M80652 30445
L80521 30258
" />
<path d="M80427 30445
L80427 30052
L80577 30052
L80614 30070
L80633 30089
L80652 30127
L80652 30183
L80633 30220
L80614 30239
L80577 30258
L80427 30258
" />
<path d="M80802 30089
L80821 30070
L80858 30052
L80952 30052
L80989 30070
L81008 30089
L81027 30127
L81027 30164
L81008 30220
L80783 30445
L81027 30445
" />
<path d="M81402 30445
L81177 30445
" />
<path d="M81289 30445
L81289 30052
L81252 30108
L81214 30145
L81177 30164
" />
</g><text x="80905.5" y="30937"
textLength="1220.38" font-size="524.934" lengthAdjust="spacingAndGlyphs"
text-anchor="middle" opacity="0">R20</text>
<g class="stroked-text"><desc>R20</desc>
<path d="M80652 30918
L80521 30730
" />
<path d="M80427 30918
L80427 30524
L80577 30524
L80614 30543
L80633 30562
L80652 30599
L80652 30655
L80633 30693
L80614 30712
L80577 30730
L80427 30730
" />
<path d="M80802 30562
L80821 30543
L80858 30524
L80952 30524
L80989 30543
L81008 30562
L81027 30599
L81027 30637
L81008 30693
L80783 30918
L81027 30918
" />
<path d="M81271 30524
L81308 30524
L81346 30543
L81364 30562
L81383 30599
L81402 30674
L81402 30768
L81383 30843
L81364 30880
L81346 30899
L81308 30918
L81271 30918
L81233 30899
L81214 30880
L81196 30843
L81177 30768
L81177 30674
L81196 30599
L81214 30562
L81233 30543
L81271 30524
" />
</g><text x="80905.5" y="31409.4"
textLength="1220.38" font-size="524.934" lengthAdjust="spacingAndGlyphs"
text-anchor="middle" opacity="0">R19</text>
<g class="stroked-text"><desc>R19</desc>
<path d="M80652 31390
L80521 31203
" />
<path d="M80427 31390
L80427 30997
L80577 30997
L80614 31015
L80633 31034
L80652 31071
L80652 31128
L80633 31165
L80614 31184
L80577 31203
L80427 31203
" />
<path d="M81027 31390
L80802 31390
" />
<path d="M80914 31390
L80914 30997
L80877 31053
L80839 31090
L80802 31109
" />
<path d="M81214 31390
L81289 31390
L81327 31371
L81346 31353
L81383 31296
L81402 31221
L81402 31071
L81383 31034
L81364 31015
L81327 30997
L81252 30997
L81214 31015
L81196 31034
L81177 31071
L81177 31165
L81196 31203
L81214 31221
L81252 31240
L81327 31240
L81364 31221
L81383 31203
L81402 31165
" />
</g><g transform="rotate(-90 83998 52958.7)">
<text x="83998" y="53155.5"
textLength="1220.38" font-size="524.934" lengthAdjust="spacingAndGlyphs"
text-anchor="middle" opacity="0">R18</text>
</g>
<g class="stroked-text"><desc>R18</desc>
<path d="M84176 53211
L83988 53342
" />
<path d="M84176 53436
L83782 53436
L83782 53286
L83801 53249
L83819 53230
L83857 53211
L83913 53211
L83951 53230
L83969 53249
L83988 53286
L83988 53436
" />
<path d="M84176 52836
L84176 53061
" />
<path d="M84176 52949
L83782 52949
L83838 52986
L83876 53024
L83894 53061
" />
<path d="M83951 52611
L83932 52649
L83913 52668
L83876 52686
L83857 52686
L83819 52668
L83801 52649
L83782 52611
L83782 52536
L83801 52499
L83819 52480
L83857 52461
L83876 52461
L83913 52480
L83932 52499
L83951 52536
L83951 52611
L83969 52649
L83988 52668
L84026 52686
L84101 52686
L84138 52668
L84157 52649
L84176 52611
L84176 52536
L84157 52499
L84138 52480
L84101 52461
L84026 52461
L83988 52480
L83969 52499
L83951 52536
" />
</g><g transform="rotate(-90 83448.8 54685)">
<text x="83448.8" y="54881.9"
textLength="1220.38" font-size="524.934" lengthAdjust="spacingAndGlyphs"
text-anchor="middle" opacity="0">R17</text>
</g>
<g class="stroked-text"><desc>R17</desc>
<path d="M83626 54938
L83439 55069
" />
<path d="M83626 55163
L83233 55163
L83233 55013
L83251 54975
L83270 54956
L83308 54938
L83364 54938
L83401 54956
L83420 54975
L83439 55013
L83439 55163
" />
<path d="M83626 54563
L83626 54788
" />
<path d="M83626 54675
L83233 54675
L83289 54713
L83326 54750
L83345 54788
" />
<path d="M83233 54431
L83233 54169
L83626 54338
" />
</g><text x="79960.6" y="51566.9"
textLength="1220.38" font-size="524.934" lengthAdjust="spacingAndGlyphs"
text-anchor="middle" opacity="0">R16</text>
<g class="stroked-text"><desc>R16</desc>
<path d="M79707 51548
L79576 51360
" />
<path d="M79482 51548
L79482 51154
L79632 51154
L79670 51173
L79688 51191
L79707 51229
L79707 51285
L79688 51323
L79670 51341
L79632 51360
L79482 51360
" />
<path d="M80082 51548
L79857 51548
" />
<path d="M79970 51548
L79970 51154
L79932 51210
L79895 51248
L79857 51266
" />
<path d="M80419 51154
L80344 51154
L80307 51173
L80288 51191
L80251 51248
L80232 51323
L80232 51473
L80251 51510
L80269 51529
L80307 51548
L80382 51548
L80419 51529
L80438 51510
L80457 51473
L80457 51379
L80438 51341
L80419 51323
L80382 51304
L80307 51304
L80269 51323
L80251 51341
L80232 51379
" />
</g><text x="80568.9" y="58131.9"
textLength="1220.38" font-size="524.934" lengthAdjust="spacingAndGlyphs"
text-anchor="middle" opacity="0">R15</text>
<g class="stroked-text"><desc>R15</desc>
<path d="M80315 58113
L80184 57925
" />
<path d="M80090 58113
L80090 57719
L80240 57719
L80278 57738
L80297 57756
L80315 57794
L80315 57850
L80297 57888
L80278 57906
L80240 57925
L80090 57925
" />
<path d="M80690 58113
L80465 58113
" />
<path d="M80578 58113
L80578 57719
L80540 57775
L80503 57813
L80465 57831
" />
<path d="M81046 57719
L80859 57719
L80840 57906
L80859 57888
L80896 57869
L80990 57869
L81028 57888
L81046 57906
L81065 57944
L81065 58038
L81046 58075
L81028 58094
L80990 58113
L80896 58113
L80859 58094
L80840 58075
" />
</g><g transform="rotate(-90 72818.9 47185)">
<text x="72818.9" y="47381.9"
textLength="1220.38" font-size="524.934" lengthAdjust="spacingAndGlyphs"
text-anchor="middle" opacity="0">R14</text>
</g>
<g class="stroked-text"><desc>R14</desc>
<path d="M72997 47438
L72809 47569
" />
<path d="M72997 47663
L72603 47663
L72603 47513
L72622 47475
L72640 47456
L72678 47438
L72734 47438
L72772 47456
L72790 47475
L72809 47513
L72809 47663
" />
<path d="M72997 47063
L72997 47288
" />
<path d="M72997 47175
L72603 47175
L72659 47213
L72697 47250
L72715 47288
" />
<path d="M72734 46725
L72997 46725
" />
<path d="M72584 46819
L72865 46913
L72865 46669
" />
</g><g transform="rotate(-90 74468.5 45935)">
<text x="74468.5" y="46131.9"
textLength="1220.38" font-size="524.934" lengthAdjust="spacingAndGlyphs"
text-anchor="middle" opacity="0">R13</text>
</g>
<g class="stroked-text"><desc>R13</desc>
<path d="M74646 46188
L74459 46319
" />
<path d="M74646 46413
L74252 46413
L74252 46263
L74271 46225
L74290 46206
L74327 46188
L74384 46188
L74421 46206
L74440 46225
L74459 46263
L74459 46413
" />
<path d="M74646 45813
L74646 46038
" />
<path d="M74646 45925
L74252 45925
L74309 45963
L74346 46000
L74365 46038
" />
<path d="M74252 45681
L74252 45438
L74402 45569
L74402 45513
L74421 45475
L74440 45456
L74477 45438
L74571 45438
L74609 45456
L74627 45475
L74646 45513
L74646 45625
L74627 45663
L74609 45681
" />
</g><g transform="rotate(-90 65568.9 52685)">
<text x="65568.9" y="52881.9"
textLength="1220.38" font-size="524.934" lengthAdjust="spacingAndGlyphs"
text-anchor="middle" opacity="0">R12</text>
</g>
<g class="stroked-text"><desc>R12</desc>
<path d="M65747 52938
L65559 53069
" />
<path d="M65747 53163
L65353 53163
L65353 53013
L65372 52975
L65390 52956
L65428 52938
L65484 52938
L65522 52956
L65540 52975
L65559 53013
L65559 53163
" />
<path d="M65747 52563
L65747 52788
" />
<path d="M65747 52675
L65353 52675
L65409 52713
L65447 52750
L65465 52788
" />
<path d="M65390 52413
L65372 52394
L65353 52356
L65353 52263
L65372 52225
L65390 52206
L65428 52188
L65465 52188
L65522 52206
L65747 52431
L65747 52188
" />
</g><g transform="rotate(-90 64568.9 52685)">
<text x="64568.9" y="52881.9"
textLength="1220.38" font-size="524.934" lengthAdjust="spacingAndGlyphs"
text-anchor="middle" opacity="0">R11</text>
</g>
<g class="stroked-text"><desc>R11</desc>
<path d="M64747 52938
L64559 53069
" />
<path d="M64747 53163
L64353 53163
L64353 53013
L64372 52975
L64390 52956
L64428 52938
L64484 52938
L64522 52956
L64540 52975
L64559 53013
L64559 53163
" />
<path d="M64747 52563
L64747 52788
" />
<path d="M64747 52675
L64353 52675
L64409 52713
L64447 52750
L64465 52788
" />
<path d="M64747 52188
L64747 52413
" />
<path d="M64747 52300
L64353 52300
L64409 52338
L64447 52375
L64465 52413
" />
</g><text x="70068.9" y="47982.3"
textLength="1220.38" font-size="524.934" lengthAdjust="spacingAndGlyphs"
text-anchor="middle" opacity="0">R10</text>
<g class="stroked-text"><desc>R10</desc>
<path d="M69815 47963
L69684 47776
" />
<path d="M69590 47963
L69590 47569
L69740 47569
L69778 47588
L69797 47607
L69815 47644
L69815 47701
L69797 47738
L69778 47757
L69740 47776
L69590 47776
" />
<path d="M70190 47963
L69965 47963
" />
<path d="M70078 47963
L70078 47569
L70040 47626
L70003 47663
L69965 47682
" />
<path d="M70434 47569
L70471 47569
L70509 47588
L70528 47607
L70546 47644
L70565 47719
L70565 47813
L70546 47888
L70528 47926
L70509 47944
L70471 47963
L70434 47963
L70396 47944
L70378 47926
L70359 47888
L70340 47813
L70340 47719
L70359 47644
L70378 47607
L70396 47588
L70434 47569
" />
</g><g transform="rotate(-90 67568.9 52935)">
<text x="67568.9" y="53131.9"
textLength="845.426" font-size="524.934" lengthAdjust="spacingAndGlyphs"
text-anchor="middle" opacity="0">R9</text>
</g>
<g class="stroked-text"><desc>R9</desc>
<path d="M67747 53000
L67559 53131
" />
<path d="M67747 53225
L67353 53225
L67353 53075
L67372 53038
L67390 53019
L67428 53000
L67484 53000
L67522 53019
L67540 53038
L67559 53075
L67559 53225
" />
<path d="M67747 52813
L67747 52738
L67728 52700
L67709 52681
L67653 52644
L67578 52625
L67428 52625
L67390 52644
L67372 52663
L67353 52700
L67353 52775
L67372 52813
L67390 52831
L67428 52850
L67522 52850
L67559 52831
L67578 52813
L67597 52775
L67597 52700
L67578 52663
L67559 52644
L67522 52625
" />
</g><g transform="rotate(-90 69068.9 45435)">
<text x="69068.9" y="45631.9"
textLength="845.426" font-size="524.934" lengthAdjust="spacingAndGlyphs"
text-anchor="middle" opacity="0">R8</text>
</g>
<g class="stroked-text"><desc>R8</desc>
<path d="M69247 45500
L69059 45631
" />
<path d="M69247 45725
L68853 45725
L68853 45575
L68872 45538
L68890 45519
L68928 45500
L68984 45500
L69022 45519
L69040 45538
L69059 45575
L69059 45725
" />
<path d="M69022 45275
L69003 45313
L68984 45331
L68947 45350
L68928 45350
L68890 45331
L68872 45313
L68853 45275
L68853 45200
L68872 45163
L68890 45144
L68928 45125
L68947 45125
L68984 45144
L69003 45163
L69022 45200
L69022 45275
L69040 45313
L69059 45331
L69097 45350
L69172 45350
L69209 45331
L69228 45313
L69247 45275
L69247 45200
L69228 45163
L69209 45144
L69172 45125
L69097 45125
L69059 45144
L69040 45163
L69022 45200
" />
</g><g transform="rotate(-90 66818.9 45435)">
<text x="66818.9" y="45631.9"
textLength="845.426" font-size="524.934" lengthAdjust="spacingAndGlyphs"
text-anchor="middle" opacity="0">R7</text>
</g>
<g class="stroked-text"><desc>R7</desc>
<path d="M66997 45500
L66809 45631
" />
<path d="M66997 45725
L66603 45725
L66603 45575
L66622 45538
L66640 45519
L66678 45500
L66734 45500
L66772 45519
L66790 45538
L66809 45575
L66809 45725
" />
<path d="M66603 45369
L66603 45106
L66997 45275
" />
</g><g transform="rotate(-90 73718.5 50685)">
<text x="73718.5" y="50881.9"
textLength="845.426" font-size="524.934" lengthAdjust="spacingAndGlyphs"
text-anchor="middle" opacity="0">R6</text>
</g>
<g class="stroked-text"><desc>R6</desc>
<path d="M73896 50750
L73709 50881
" />
<path d="M73896 50975
L73502 50975
L73502 50825
L73521 50788
L73540 50769
L73577 50750
L73634 50750
L73671 50769
L73690 50788
L73709 50825
L73709 50975
" />
<path d="M73502 50413
L73502 50488
L73521 50525
L73540 50544
L73596 50581
L73671 50600
L73821 50600
L73859 50581
L73877 50563
L73896 50525
L73896 50450
L73877 50413
L73859 50394
L73821 50375
L73727 50375
L73690 50394
L73671 50413
L73652 50450
L73652 50525
L73671 50563
L73690 50581
L73727 50600
" />
</g><text x="69068.9" y="49381.9"
textLength="845.426" font-size="524.934" lengthAdjust="spacingAndGlyphs"
text-anchor="middle" opacity="0">R5</text>
<g class="stroked-text"><desc>R5</desc>
<path d="M69003 49363
L68872 49175
" />
<path d="M68778 49363
L68778 48969
L68928 48969
L68965 48988
L68984 49006
L69003 49044
L69003 49100
L68984 49138
L68965 49156
L68928 49175
L68778 49175
" />
<path d="M69359 48969
L69172 48969
L69153 49156
L69172 49138
L69209 49119
L69303 49119
L69340 49138
L69359 49156
L69378 49194
L69378 49288
L69359 49325
L69340 49344
L69303 49363
L69209 49363
L69172 49344
L69153 49325
" />
</g><text x="66068.9" y="58631.9"
textLength="845.426" font-size="524.934" lengthAdjust="spacingAndGlyphs"
text-anchor="middle" opacity="0">R4</text>
<g class="stroked-text"><desc>R4</desc>
<path d="M66003 58613
L65872 58425
" />
<path d="M65778 58613
L65778 58219
L65928 58219
L65965 58238
L65984 58256
L66003 58294
L66003 58350
L65984 58388
L65965 58406
L65928 58425
L65778 58425
" />
<path d="M66340 58350
L66340 58613
" />
<path d="M66247 58200
L66153 58481
L66396 58481
" />
</g><text x="64291.3" y="57393.7"
textLength="845.426" font-size="524.934" lengthAdjust="spacingAndGlyphs"
text-anchor="middle" opacity="0">R3</text>
<g class="stroked-text"><desc>R3</desc>
<path d="M64225 57374
L64094 57187
" />
<path d="M64000 57374
L64000 56981
L64150 56981
L64188 57000
L64206 57018
L64225 57056
L64225 57112
L64206 57149
L64188 57168
L64150 57187
L64000 57187
" />
<path d="M64356 56981
L64600 56981
L64469 57131
L64525 57131
L64563 57149
L64581 57168
L64600 57206
L64600 57299
L64581 57337
L64563 57356
L64525 57374
L64413 57374
L64375 57356
L64356 57337
" />
</g><g transform="rotate(-90 73718.5 52185)">
<text x="73718.5" y="52381.9"
textLength="845.426" font-size="524.934" lengthAdjust="spacingAndGlyphs"
text-anchor="middle" opacity="0">R2</text>
</g>
<g class="stroked-text"><desc>R2</desc>
<path d="M73896 52250
L73709 52381
" />
<path d="M73896 52475
L73502 52475
L73502 52325
L73521 52288
L73540 52269
L73577 52250
L73634 52250
L73671 52269
L73690 52288
L73709 52325
L73709 52475
" />
<path d="M73540 52100
L73521 52081
L73502 52044
L73502 51950
L73521 51913
L73540 51894
L73577 51875
L73615 51875
L73671 51894
L73896 52119
L73896 51875
" />
</g><text x="69068.9" y="52881.9"
textLength="845.426" font-size="524.934" lengthAdjust="spacingAndGlyphs"
text-anchor="middle" opacity="0">R1</text>
<g class="stroked-text"><desc>R1</desc>
<path d="M69003 52863
L68872 52675
" />
<path d="M68778 52863
L68778 52469
L68928 52469
L68965 52488
L68984 52506
L69003 52544
L69003 52600
L68984 52638
L68965 52656
L68928 52675
L68778 52675
" />
<path d="M69378 52863
L69153 52863
" />
<path d="M69265 52863
L69265 52469
L69228 52525
L69190 52563
L69153 52581
" />
</g><text x="70029.5" y="29657.5"
textLength="1220.38" font-size="524.934" lengthAdjust="spacingAndGlyphs"
text-anchor="middle" opacity="0">C24</text>
<g class="stroked-text"><desc>C24</desc>
<path d="M69776 29601
L69757 29619
L69701 29638
L69663 29638
L69607 29619
L69570 29582
L69551 29544
L69532 29470
L69532 29413
L69551 29338
L69570 29301
L69607 29263
L69663 29245
L69701 29245
L69757 29263
L69776 29282
" />
<path d="M69926 29282
L69945 29263
L69982 29245
L70076 29245
L70113 29263
L70132 29282
L70151 29320
L70151 29357
L70132 29413
L69907 29638
L70151 29638
" />
<path d="M70488 29376
L70488 29638
" />
<path d="M70395 29226
L70301 29507
L70545 29507
" />
</g><text x="75944.9" y="22354.3"
textLength="1220.38" font-size="524.934" lengthAdjust="spacingAndGlyphs"
text-anchor="middle" opacity="0">C23</text>
<g class="stroked-text"><desc>C23</desc>
<path d="M75691 22298
L75673 22316
L75616 22335
L75579 22335
L75523 22316
L75485 22279
L75466 22241
L75448 22166
L75448 22110
L75466 22035
L75485 21998
L75523 21960
L75579 21941
L75616 21941
L75673 21960
L75691 21979
" />
<path d="M75841 21979
L75860 21960
L75898 21941
L75991 21941
L76029 21960
L76047 21979
L76066 22016
L76066 22054
L76047 22110
L75823 22335
L76066 22335
" />
<path d="M76197 21941
L76441 21941
L76310 22091
L76366 22091
L76404 22110
L76422 22129
L76441 22166
L76441 22260
L76422 22298
L76404 22316
L76366 22335
L76254 22335
L76216 22316
L76197 22298
" />
</g><text x="70039.4" y="36685"
textLength="1220.38" font-size="524.934" lengthAdjust="spacingAndGlyphs"
text-anchor="middle" opacity="0">C22</text>
<g class="stroked-text"><desc>C22</desc>
<path d="M69786 36628
L69767 36647
L69711 36666
L69673 36666
L69617 36647
L69580 36610
L69561 36572
L69542 36497
L69542 36441
L69561 36366
L69580 36328
L69617 36291
L69673 36272
L69711 36272
L69767 36291
L69786 36310
" />
<path d="M69936 36310
L69955 36291
L69992 36272
L70086 36272
L70123 36291
L70142 36310
L70161 36347
L70161 36385
L70142 36441
L69917 36666
L70161 36666
" />
<path d="M70311 36310
L70329 36291
L70367 36272
L70461 36272
L70498 36291
L70517 36310
L70536 36347
L70536 36385
L70517 36441
L70292 36666
L70536 36666
" />
</g><text x="70039.4" y="32590.6"
textLength="1220.38" font-size="524.934" lengthAdjust="spacingAndGlyphs"
text-anchor="middle" opacity="0">C21</text>
<g class="stroked-text"><desc>C21</desc>
<path d="M69786 32534
L69767 32553
L69711 32571
L69673 32571
L69617 32553
L69580 32515
L69561 32478
L69542 32403
L69542 32346
L69561 32271
L69580 32234
L69617 32196
L69673 32178
L69711 32178
L69767 32196
L69786 32215
" />
<path d="M69936 32215
L69955 32196
L69992 32178
L70086 32178
L70123 32196
L70142 32215
L70161 32253
L70161 32290
L70142 32346
L69917 32571
L70161 32571
" />
<path d="M70536 32571
L70311 32571
" />
<path d="M70423 32571
L70423 32178
L70386 32234
L70348 32271
L70311 32290
" />
</g><text x="70039.4" y="28496.1"
textLength="1220.38" font-size="524.934" lengthAdjust="spacingAndGlyphs"
text-anchor="middle" opacity="0">C19</text>
<g class="stroked-text"><desc>C19</desc>
<path d="M69786 28439
L69767 28458
L69711 28477
L69673 28477
L69617 28458
L69580 28421
L69561 28383
L69542 28308
L69542 28252
L69561 28177
L69580 28139
L69617 28102
L69673 28083
L69711 28083
L69767 28102
L69786 28121
" />
<path d="M70161 28477
L69936 28477
" />
<path d="M70048 28477
L70048 28083
L70011 28139
L69973 28177
L69936 28196
" />
<path d="M70348 28477
L70423 28477
L70461 28458
L70479 28439
L70517 28383
L70536 28308
L70536 28158
L70517 28121
L70498 28102
L70461 28083
L70386 28083
L70348 28102
L70329 28121
L70311 28158
L70311 28252
L70329 28289
L70348 28308
L70386 28327
L70461 28327
L70498 28308
L70517 28289
L70536 28252
" />
</g><text x="79348.4" y="53002"
textLength="1220.38" font-size="524.934" lengthAdjust="spacingAndGlyphs"
text-anchor="middle" opacity="0">C18</text>
<g class="stroked-text"><desc>C18</desc>
<path d="M79095 52945
L79076 52964
L79020 52983
L78982 52983
L78926 52964
L78889 52926
L78870 52889
L78851 52814
L78851 52758
L78870 52683
L78889 52645
L78926 52608
L78982 52589
L79020 52589
L79076 52608
L79095 52627
" />
<path d="M79470 52983
L79245 52983
" />
<path d="M79357 52983
L79357 52589
L79320 52645
L79282 52683
L79245 52702
" />
<path d="M79695 52758
L79657 52739
L79639 52720
L79620 52683
L79620 52664
L79639 52627
L79657 52608
L79695 52589
L79770 52589
L79807 52608
L79826 52627
L79845 52664
L79845 52683
L79826 52720
L79807 52739
L79770 52758
L79695 52758
L79657 52776
L79639 52795
L79620 52833
L79620 52908
L79639 52945
L79657 52964
L79695 52983
L79770 52983
L79807 52964
L79826 52945
L79845 52908
L79845 52833
L79826 52795
L79807 52776
L79770 52758
" />
</g><text x="83633.9" y="58881.9"
textLength="1220.38" font-size="524.934" lengthAdjust="spacingAndGlyphs"
text-anchor="middle" opacity="0">C17</text>
<g class="stroked-text"><desc>C17</desc>
<path d="M83380 58825
L83362 58844
L83305 58863
L83268 58863
L83212 58844
L83174 58806
L83155 58769
L83137 58694
L83137 58638
L83155 58563
L83174 58525
L83212 58488
L83268 58469
L83305 58469
L83362 58488
L83380 58506
" />
<path d="M83755 58863
L83530 58863
" />
<path d="M83643 58863
L83643 58469
L83605 58525
L83568 58563
L83530 58581
" />
<path d="M83886 58469
L84149 58469
L83980 58863
" />
</g><g transform="rotate(-90 70818.9 47185)">
<text x="70818.9" y="47381.9"
textLength="1220.38" font-size="524.934" lengthAdjust="spacingAndGlyphs"
text-anchor="middle" opacity="0">C16</text>
</g>
<g class="stroked-text"><desc>C16</desc>
<path d="M70959 47438
L70978 47456
L70997 47513
L70997 47550
L70978 47606
L70940 47644
L70903 47663
L70828 47681
L70772 47681
L70697 47663
L70659 47644
L70622 47606
L70603 47550
L70603 47513
L70622 47456
L70640 47438
" />
<path d="M70997 47063
L70997 47288
" />
<path d="M70997 47175
L70603 47175
L70659 47213
L70697 47250
L70715 47288
" />
<path d="M70603 46725
L70603 46800
L70622 46838
L70640 46856
L70697 46894
L70772 46913
L70922 46913
L70959 46894
L70978 46875
L70997 46838
L70997 46763
L70978 46725
L70959 46706
L70922 46688
L70828 46688
L70790 46706
L70772 46725
L70753 46763
L70753 46838
L70772 46875
L70790 46894
L70828 46913
" />
</g><g transform="rotate(-90 72968.5 48685)">
<text x="72968.5" y="48881.9"
textLength="1220.38" font-size="524.934" lengthAdjust="spacingAndGlyphs"
text-anchor="middle" opacity="0">C15</text>
</g>
<g class="stroked-text"><desc>C15</desc>
<path d="M73109 48938
L73127 48956
L73146 49013
L73146 49050
L73127 49106
L73090 49144
L73052 49163
L72977 49181
L72921 49181
L72846 49163
L72809 49144
L72771 49106
L72752 49050
L72752 49013
L72771 48956
L72790 48938
" />
<path d="M73146 48563
L73146 48788
" />
<path d="M73146 48675
L72752 48675
L72809 48713
L72846 48750
L72865 48788
" />
<path d="M72752 48206
L72752 48394
L72940 48413
L72921 48394
L72902 48356
L72902 48263
L72921 48225
L72940 48206
L72977 48188
L73071 48188
L73109 48206
L73127 48225
L73146 48263
L73146 48356
L73127 48394
L73109 48413
" />
</g><g transform="rotate(-90 66568.9 52685)">
<text x="66568.9" y="52881.9"
textLength="1220.38" font-size="524.934" lengthAdjust="spacingAndGlyphs"
text-anchor="middle" opacity="0">C14</text>
</g>
<g class="stroked-text"><desc>C14</desc>
<path d="M66709 52938
L66728 52956
L66747 53013
L66747 53050
L66728 53106
L66690 53144
L66653 53163
L66578 53181
L66522 53181
L66447 53163
L66409 53144
L66372 53106
L66353 53050
L66353 53013
L66372 52956
L66390 52938
" />
<path d="M66747 52563
L66747 52788
" />
<path d="M66747 52675
L66353 52675
L66409 52713
L66447 52750
L66465 52788
" />
<path d="M66484 52225
L66747 52225
" />
<path d="M66334 52319
L66615 52413
L66615 52169
" />
</g><text x="82480.3" y="54133.9"
textLength="1220.38" font-size="524.934" lengthAdjust="spacingAndGlyphs"
text-anchor="middle" opacity="0">C13</text>
<g class="stroked-text"><desc>C13</desc>
<path d="M82227 54077
L82208 54096
L82152 54115
L82114 54115
L82058 54096
L82020 54058
L82002 54021
L81983 53946
L81983 53890
L82002 53815
L82020 53777
L82058 53740
L82114 53721
L82152 53721
L82208 53740
L82227 53758
" />
<path d="M82602 54115
L82377 54115
" />
<path d="M82489 54115
L82489 53721
L82452 53777
L82414 53815
L82377 53833
" />
<path d="M82733 53721
L82977 53721
L82845 53871
L82902 53871
L82939 53890
L82958 53908
L82977 53946
L82977 54040
L82958 54077
L82939 54096
L82902 54115
L82789 54115
L82752 54096
L82733 54077
" />
</g><g transform="rotate(-90 71818.9 47185)">
<text x="71818.9" y="47381.9"
textLength="1220.38" font-size="524.934" lengthAdjust="spacingAndGlyphs"
text-anchor="middle" opacity="0">C12</text>
</g>
<g class="stroked-text"><desc>C12</desc>
<path d="M71959 47438
L71978 47456
L71997 47513
L71997 47550
L71978 47606
L71940 47644
L71903 47663
L71828 47681
L71772 47681
L71697 47663
L71659 47644
L71622 47606
L71603 47550
L71603 47513
L71622 47456
L71640 47438
" />
<path d="M71997 47063
L71997 47288
" />
<path d="M71997 47175
L71603 47175
L71659 47213
L71697 47250
L71715 47288
" />
<path d="M71640 46913
L71622 46894
L71603 46856
L71603 46763
L71622 46725
L71640 46706
L71678 46688
L71715 46688
L71772 46706
L71997 46931
L71997 46688
" />
</g><text x="72068.9" y="44631.9"
textLength="1220.38" font-size="524.934" lengthAdjust="spacingAndGlyphs"
text-anchor="middle" opacity="0">C11</text>
<g class="stroked-text"><desc>C11</desc>
<path d="M71815 44575
L71797 44594
L71740 44613
L71703 44613
L71647 44594
L71609 44556
L71590 44519
L71572 44444
L71572 44388
L71590 44313
L71609 44275
L71647 44238
L71703 44219
L71740 44219
L71797 44238
L71815 44256
" />
<path d="M72190 44613
L71965 44613
" />
<path d="M72078 44613
L72078 44219
L72040 44275
L72003 44313
L71965 44331
" />
<path d="M72565 44613
L72340 44613
" />
<path d="M72453 44613
L72453 44219
L72415 44275
L72378 44313
L72340 44331
" />
</g><text x="81194.9" y="54352.4"
textLength="1220.38" font-size="524.934" lengthAdjust="spacingAndGlyphs"
text-anchor="middle" opacity="0">C10</text>
<g class="stroked-text"><desc>C10</desc>
<path d="M80941 54296
L80923 54314
L80866 54333
L80829 54333
L80773 54314
L80735 54277
L80716 54239
L80698 54164
L80698 54108
L80716 54033
L80735 53996
L80773 53958
L80829 53939
L80866 53939
L80923 53958
L80941 53977
" />
<path d="M81316 54333
L81091 54333
" />
<path d="M81204 54333
L81204 53939
L81166 53996
L81129 54033
L81091 54052
" />
<path d="M81560 53939
L81597 53939
L81635 53958
L81654 53977
L81672 54014
L81691 54089
L81691 54183
L81672 54258
L81654 54296
L81635 54314
L81597 54333
L81560 54333
L81522 54314
L81504 54296
L81485 54258
L81466 54183
L81466 54089
L81485 54014
L81504 53977
L81522 53958
L81560 53939
" />
</g><text x="82068.9" y="58131.9"
textLength="845.426" font-size="524.934" lengthAdjust="spacingAndGlyphs"
text-anchor="middle" opacity="0">C9</text>
<g class="stroked-text"><desc>C9</desc>
<path d="M82003 58075
L81984 58094
L81928 58113
L81890 58113
L81834 58094
L81797 58056
L81778 58019
L81759 57944
L81759 57888
L81778 57813
L81797 57775
L81834 57738
L81890 57719
L81928 57719
L81984 57738
L82003 57756
" />
<path d="M82190 58113
L82265 58113
L82303 58094
L82321 58075
L82359 58019
L82378 57944
L82378 57794
L82359 57756
L82340 57738
L82303 57719
L82228 57719
L82190 57738
L82172 57756
L82153 57794
L82153 57888
L82172 57925
L82190 57944
L82228 57963
L82303 57963
L82340 57944
L82359 57925
L82378 57888
" />
</g><text x="66972.4" y="50781.5"
textLength="845.426" font-size="524.934" lengthAdjust="spacingAndGlyphs"
text-anchor="middle" opacity="0">C8</text>
<g class="stroked-text"><desc>C8</desc>
<path d="M66906 50725
L66888 50744
L66831 50762
L66794 50762
L66738 50744
L66700 50706
L66681 50669
L66663 50594
L66663 50537
L66681 50462
L66700 50425
L66738 50387
L66794 50369
L66831 50369
L66888 50387
L66906 50406
" />
<path d="M67131 50537
L67094 50519
L67075 50500
L67056 50462
L67056 50444
L67075 50406
L67094 50387
L67131 50369
L67206 50369
L67244 50387
L67263 50406
L67281 50444
L67281 50462
L67263 50500
L67244 50519
L67206 50537
L67131 50537
L67094 50556
L67075 50575
L67056 50612
L67056 50687
L67075 50725
L67094 50744
L67131 50762
L67206 50762
L67244 50744
L67263 50725
L67281 50687
L67281 50612
L67263 50575
L67244 50556
L67206 50537
" />
</g><text x="67318.9" y="48881.9"
textLength="845.426" font-size="524.934" lengthAdjust="spacingAndGlyphs"
text-anchor="middle" opacity="0">C7</text>
<g class="stroked-text"><desc>C7</desc>
<path d="M67253 48825
L67234 48844
L67178 48863
L67140 48863
L67084 48844
L67047 48806
L67028 48769
L67009 48694
L67009 48638
L67028 48563
L67047 48525
L67084 48488
L67140 48469
L67178 48469
L67234 48488
L67253 48506
" />
<path d="M67384 48469
L67646 48469
L67478 48863
" />
</g><text x="66972.4" y="46982.3"
textLength="845.426" font-size="524.934" lengthAdjust="spacingAndGlyphs"
text-anchor="middle" opacity="0">C6</text>
<g class="stroked-text"><desc>C6</desc>
<path d="M66906 46926
L66888 46944
L66831 46963
L66794 46963
L66738 46944
L66700 46907
L66681 46869
L66663 46794
L66663 46738
L66681 46663
L66700 46626
L66738 46588
L66794 46569
L66831 46569
L66888 46588
L66906 46607
" />
<path d="M67244 46569
L67169 46569
L67131 46588
L67113 46607
L67075 46663
L67056 46738
L67056 46888
L67075 46926
L67094 46944
L67131 46963
L67206 46963
L67244 46944
L67263 46926
L67281 46888
L67281 46794
L67263 46757
L67244 46738
L67206 46719
L67131 46719
L67094 46738
L67075 46757
L67056 46794
" />
</g><text x="68722.4" y="43631.9"
textLength="845.426" font-size="524.934" lengthAdjust="spacingAndGlyphs"
text-anchor="middle" opacity="0">C5</text>
<g class="stroked-text"><desc>C5</desc>
<path d="M68656 43575
L68638 43594
L68581 43613
L68544 43613
L68488 43594
L68450 43556
L68431 43519
L68413 43444
L68413 43388
L68431 43313
L68450 43275
L68488 43238
L68544 43219
L68581 43219
L68638 43238
L68656 43256
" />
<path d="M69013 43219
L68825 43219
L68806 43406
L68825 43388
L68863 43369
L68956 43369
L68994 43388
L69013 43406
L69031 43444
L69031 43538
L69013 43575
L68994 43594
L68956 43613
L68863 43613
L68825 43594
L68806 43575
" />
</g><g transform="rotate(-90 67218.5 40185)">
<text x="67218.5" y="40381.9"
textLength="845.426" font-size="524.934" lengthAdjust="spacingAndGlyphs"
text-anchor="middle" opacity="0">C4</text>
</g>
<g class="stroked-text"><desc>C4</desc>
<path d="M67359 40250
L67377 40269
L67396 40325
L67396 40363
L67377 40419
L67340 40456
L67302 40475
L67227 40494
L67171 40494
L67096 40475
L67059 40456
L67021 40419
L67002 40363
L67002 40325
L67021 40269
L67040 40250
" />
<path d="M67134 39913
L67396 39913
" />
<path d="M66984 40006
L67265 40100
L67265 39856
" />
</g><text x="67165.4" y="43631.9"
textLength="845.426" font-size="524.934" lengthAdjust="spacingAndGlyphs"
text-anchor="middle" opacity="0">C3</text>
<g class="stroked-text"><desc>C3</desc>
<path d="M67099 43575
L67080 43594
L67024 43613
L66987 43613
L66931 43594
L66893 43556
L66874 43519
L66856 43444
L66856 43388
L66874 43313
L66893 43275
L66931 43238
L66987 43219
L67024 43219
L67080 43238
L67099 43256
" />
<path d="M67230 43219
L67474 43219
L67343 43369
L67399 43369
L67437 43388
L67455 43406
L67474 43444
L67474 43538
L67455 43575
L67437 43594
L67399 43613
L67287 43613
L67249 43594
L67230 43575
" />
</g><text x="67068.9" y="58631.9"
textLength="845.426" font-size="524.934" lengthAdjust="spacingAndGlyphs"
text-anchor="middle" opacity="0">C2</text>
<g class="stroked-text"><desc>C2</desc>
<path d="M67003 58575
L66984 58594
L66928 58613
L66890 58613
L66834 58594
L66797 58556
L66778 58519
L66759 58444
L66759 58388
L66778 58313
L66797 58275
L66834 58238
L66890 58219
L66928 58219
L66984 58238
L67003 58256
" />
<path d="M67153 58256
L67172 58238
L67209 58219
L67303 58219
L67340 58238
L67359 58256
L67378 58294
L67378 58331
L67359 58388
L67134 58613
L67378 58613
" />
</g><text x="65068.9" y="58631.9"
textLength="845.426" font-size="524.934" lengthAdjust="spacingAndGlyphs"
text-anchor="middle" opacity="0">C1</text>
<g class="stroked-text"><desc>C1</desc>
<path d="M65003 58575
L64984 58594
L64928 58613
L64890 58613
L64834 58594
L64797 58556
L64778 58519
L64759 58444
L64759 58388
L64778 58313
L64797 58275
L64834 58238
L64890 58219
L64928 58219
L64984 58238
L65003 58256
" />
<path d="M65378 58613
L65153 58613
" />
<path d="M65265 58613
L65265 58219
L65228 58275
L65190 58313
L65153 58331
" />
</g><g >
</g>
</g> 
</svg>
